**ABCDEFGHIJKLMNOPQRSTUVWXYZabcdefghijklmnopqrstuvwxyz**************************
**PARASOLID !"#$%&'()*+,-./:;<=>?@[\]^_`{|}~0123456789**************************
**PART1;
FORMAT=text;
GUISE=transmit;
KEY=unicode filename;
FILE=unicode filename;
DATE=unknown;
**PART2;
SCH=SCH_3200152_32001;
USFLD_SIZE=0;
**PART3;
**END_OF_HEADER*****************************************************************
T51 : TRANSMIT FILE created by modeller version 320015217 SCH_1300000_130060 74
 3 1 3 0 2 3 4 12 2 117 5 6 0 0 0 0 1e3 1e-8 0 0 3 1 0 1 1 7 8 9 10 11 12 13 12
 3 69 14 15 0 0 0 0 1e3 1e-8 0 2 4 1 0 1 1 16 17 18 19 20 21 22 12 4 213 23 24 0
 0 0 0 1e3 1e-8 0 3 0 1 0 1 1 25 26 27 28 29 30 31 81 1 23 133 32 4 0 0 0 0 33 7
0 24 0 4 0 0 4 1 20 4 34 34 1 T13 25 84 0 4 0 35 0 0 36 0 54 26 100 0 37 38 0 39
 +.0145 0 0 1 0 612303176911189e-31 .04375 20638e-9 612303176911189e-31 0 -1 137
 27 212 0 4 40 0 41 +42 43 0 ?29 28 116 0 44 45 0 .0145 -.0425537084563091 -.010
24942181503392 19 29 1 0 4 36 0 46 V16 30 57 0 5e-7 47 0 48 0 0 0 4 18 31 58 0 4
7 0 49 50 5e-7 4 17 47 0 51 47 47 31 52 30 53 52 +18 49 55 0 54 31 55 56 5e-7 4
 29 50 108 0 31 57 58 .0145 .0425537084563091 .01024942181503394 29 57 107 0 59
 60 50 .0145 -.02284258014543965 .0373374514827433 29 58 109 0 61 50 62 .0145 .0
373374514827433 -.02284258014543965 18 61 9 0 63 64 65 58 5e-7 4 29 62 110 0 55
 58 66 .0145 .02284258014543965 .0373374514827433 18 55 51 0 67 49 68 62 5e-7 4
 29 66 111 0 69 62 70 .0145 -.02284258014543965 -.0373374514827433 18 69 23 0 71
 72 73 66 5e-7 4 29 70 112 0 65 66 74 .0145 .02284258014543965 -.037337451482743
3 18 65 6 0 75 61 0 70 5e-7 4 29 74 113 0 76 70 77 .0145 .01024942181503394 .042
5537084563091 18 76 41 0 78 79 80 74 5e-7 4 29 77 114 0 81 74 45 .0145 .01024942
181503392 -.0425537084563091 18 81 16 0 82 73 64 77 5e-7 4 29 45 115 0 73 77 28
 .0145 -.0373374514827433 -.02284258014543965 18 73 20 0 83 69 81 45 5e-7 4 17 8
3 0 84 83 83 73 85 86 87 85 +15 84 72 0 83 88 0 17 85 0 89 85 85 73 83 86 90 0 -
16 86 19 0 5e-7 83 91 92 0 0 0 4 133 87 189 0 83 93 94 0 +94 .0145 -.03733745148
27433 -.02284258014543965 .0145 -.0373374514827433 -.02284258014543965 0 1 137 9
3 187 0 4 95 87 96 +97 98 0 ?137 94 190 0 4 87 90 99 +38 100 0 ?133 90 191 0 85
 94 101 0 +101 .0145 -.0373374514827433 -.02284258014543965 .0145 -.037337451482
7433 -.02284258014543965 0 1 141 99 87 99 99 94 54 38 99 0 88 102 26 103 +.0145
 0 0 1 0 612303176911189e-31 .04375 20638e-9 612303176911189e-31 0 -1 134 100 0
 0 0 0 0 0 +104 105 136 104 2 9 2 5 5 FFF1 106 107 108 135 105 2 0 45 18 106 5.2
6143059051217 1628379866201915e-29 5.26143059051217 .571145587233857 5.261374588
25085 1.57079731915389 5.26131854627374 2.571157985919385 5.26131854627374 3.141
592653589795 5.26131854627374 3.71202989621096 5.26137458824454 4.71238787533608
 5.26143059051217 5.71203714682279 5.26143059051217 6.2831853071796 127 5 107 3
 2 2 2 3 128 5 108 0 .25 .5 .75 1 14 88 71 0 ?109 110 111 25 38 +0 0 109 110 46
 53 102 98 0 112 113 38 114 +.0145 267882639898645e-32 .04375 .010319 0 -1 61230
3176911189e-31 1 0 0 141 103 115 116 116 38 137 115 175 0 4 117 118 119 +38 120
 0 ?141 116 94 103 103 38 133 117 174 0 121 122 115 0 +115 .0145 -.0425537084563
091 -.01024942181503394 .0145 -.0425537084563091 -.01024942181503394 0 1 133 118
 176 0 123 115 124 0 +124 .0145 -.0425537084563091 -.01024942181503392 .0145 -.0
425537084563091 -.01024942181503392 0 1 141 119 117 119 119 115 134 120 0 0 0 0
 0 0 +125 126 136 125 2 9 2 5 5 FFF1 127 128 129 135 126 2 0 45 18 127 4.9487455
3365466 -3040872923174285e-29 4.94874553365466 -.571145587847974 4.9488015359191
3 -1.57079737545583 4.94885757789309 -2.571157985344155 4.94885757789309 -3.1415
92653589795 4.94885757789309 -3.712029894280895 4.94880153591913 -4.712387931723
76 4.94874553365466 -5.7120371487089 4.94874553365466 -6.28318530717962 127 5 12
8 3 2 2 2 3 128 5 129 0 .25 .5 .75 1 17 123 0 130 123 123 44 121 131 118 0 -137
 124 177 0 4 118 132 133 +134 135 0 ?133 132 179 0 136 124 137 0 +137 .0145 -.04
25537084563091 .01024942181503396 .0145 -.0425537084563091 .01024942181503396 0
 1 141 133 118 133 133 124 53 134 92 0 138 139 42 140 +.0145 -.04375 53576527979
729e-31 .010319 0 -1224606353822376e-31 -1 1 0 0 134 135 0 0 0 0 0 0 +141 142 13
6 141 2 17 2 11 5 TTF1 143 144 145 135 142 2 0 45 34 143 4.71238898038469 1.4546
0410160725 4.71954518012114 1.45460410160725 4.72454441637864 1.454003434114448
 4.72944862735062 1.453414184085648 4.72934642998782 1.45257320742486 4.72924653
095354 1.451751143587188 4.72425679879773 1.451159764652636 4.71934904344723 1.4
50578101541352 4.71238898038469 1.450575989806898 4.70551373495854 1.45057390380
674 4.70052116197165 1.451159764652634 4.69556806421212 1.451740993219714 4.6954
3153078156 1.45257320742486 4.69529523373685 1.453403980783866 4.70023354439074
 1.454003434114446 4.70518185734162 1.45460410160725 4.71238898038469 1.45460410
160725 127 11 144 1 2 2 2 2 2 2 2 2 2 1 128 11 145 -.125 0 .125 .25 .375 .5 .625
 .75 .875 1 1.125 14 138 24 0 ?146 147 130 25 134 +0 0 146 147 46 54 139 91 0 10
9 148 134 149 +.0145 0 0 1 0 612303176911189e-31 .04375 20638e-9 612303176911189
e-31 0 -1 53 42 93 0 150 134 151 152 +.0145 .03093592167691145 -.030935921676911
45 .010319 0 .707106781186548 .707106781186547 1 0 0 141 140 124 153 153 134 141
 153 154 140 140 134 137 154 182 0 4 155 156 157 +134 158 0 ?133 155 181 0 159 1
37 154 0 +154 .0145 -.0425537084563091 .01024942181503394 .0145 -.04255370845630
91 .01024942181503394 0 1 133 156 184 0 71 154 160 0 +160 .0145 -.02284258014543
97 -.0373374514827433 .0145 -.0228425801454397 -.0373374514827433 0 1 141 157 15
5 157 157 154 134 158 0 0 0 0 0 0 +161 162 136 161 2 17 2 11 5 TTF1 163 164 165
 135 162 2 0 45 34 163 4.71238898038469 -1.45460410160725 4.70523278064662 -1.45
460410160725 4.70023354439074 -1.454003434114446 4.6953293334187 -1.453414184085
446 4.69543153078156 -1.45257320742486 4.6955314298159 -1.451751143587372 4.7005
2116197165 -1.451159764652634 4.70542891732073 -1.45057810154133 4.7123889803846
9 -1.450575989806898 4.71926422581085 -1.450573903806762 4.72425679879773 -1.451
159764652634 4.72920989655691 -1.451740993219652 4.72934642998782 -1.45257320742
486 4.72948272703288 -1.453403980783936 4.72454441637864 -1.454003434114446 4.71
959610342684 -1.45460410160725 4.71238898038469 -1.45460410160725 127 11 164 1 2
 2 2 2 2 2 2 2 2 1 128 11 165 -.125 0 .125 .25 .375 .5 .625 .75 .875 1 1.125 17
 71 0 166 71 71 69 167 91 156 167 +137 160 185 0 4 156 95 168 +139 169 0 ?133 95
 186 0 167 160 93 0 +93 .0145 -.02284258014543965 -.0373374514827433 .0145 -.022
84258014543965 -.0373374514827433 0 1 141 168 156 168 168 160 134 169 0 0 0 0 0
 0 +170 171 136 170 2 9 2 5 5 FFF1 172 173 174 135 171 2 0 45 18 172 5.734143697
05211 -2672063863204825e-29 5.73414369705211 -.571145593558808 5.73419969931974
 -1.57079743184418 5.73425574129053 -2.57115797958771 5.73425574129053 -3.141592
653589795 5.73425574129053 -3.71202989485544 5.73419969931343 -4.71238798802603
 5.73414369705211 -5.71203714817502 5.73414369705211 -6.28318530717961 127 5 173
 3 2 2 2 3 128 5 174 0 .25 .5 .75 1 17 167 0 175 167 167 69 71 91 95 0 -15 175 2
1 0 167 146 89 16 91 22 0 5e-7 71 176 86 0 0 0 4 16 176 26 0 5e-7 136 131 91 0 0
 0 4 17 136 0 177 136 136 72 159 176 132 159 +16 131 29 0 5e-7 121 178 176 0 0 0
 4 17 121 0 111 121 121 44 123 131 117 123 +16 178 33 0 5e-7 179 180 131 0 0 0 4
 17 179 0 181 179 179 59 182 178 183 182 +16 180 36 0 5e-7 184 185 178 0 0 0 4 1
7 184 0 186 184 184 80 187 180 188 187 +16 185 40 0 5e-7 78 189 180 0 0 0 4 17 7
8 0 190 78 78 76 191 185 192 191 +16 189 43 0 5e-7 193 194 185 0 0 0 4 17 193 0
 195 193 193 79 196 189 197 196 +16 194 47 0 5e-7 198 199 189 0 0 0 4 17 198 0 2
00 198 198 68 201 194 202 201 +16 199 50 0 5e-7 67 48 194 0 0 0 4 17 67 0 203 67
 67 55 204 199 205 204 +16 48 54 0 5e-7 54 30 199 0 0 0 4 17 54 0 206 54 54 49 2
07 48 208 207 +15 206 63 0 54 209 0 17 207 0 210 207 207 49 54 48 211 0 -133 208
 139 0 54 212 213 0 +213 .0145 .0425537084563091 -.01024942181503394 .0145 .0425
537084563091 -.01024942181503394 0 1 137 212 137 0 4 214 208 215 +216 217 0 ?137
 213 140 0 4 208 211 218 +219 220 0 ?133 211 141 0 207 213 221 0 +221 .0145 .042
5537084563091 -.01024942181503394 .0145 .0425537084563091 -.01024942181503394 0
 1 141 218 208 218 218 213 54 219 88 0 209 222 223 224 +.0145 0 0 1 0 6123031769
11189e-31 .04375 20638e-9 612303176911189e-31 0 -1 134 220 0 0 0 0 0 0 +225 226
 136 225 2 9 2 5 5 FFF1 227 228 229 135 226 2 0 45 18 227 1.334439773524928 -304
087292317429e-28 1.334439773524928 .571145589183067 1.334383771265188 1.57079729
0938705 1.3343277292865 2.571157983995105 1.3343277292865 3.141592653589795 1.33
43277292865 3.712029897210255 1.334383771258874 4.71238790355194 1.3344397735249
28 5.71203714579147 1.334439773524928 6.28318530717956 127 5 228 3 2 2 2 3 128 5
 229 0 .25 .5 .75 1 14 209 62 0 ?37 230 231 25 219 +0 0 37 230 46 54 222 87 0 11
0 232 219 233 +.0145 0 0 1 0 612303176911189e-31 .04375 20638e-9 612303176911189
e-31 0 -1 54 223 89 0 35 219 148 234 +.0145 0 0 1 0 612303176911189e-31 .04375 2
0638e-9 612303176911189e-31 0 -1 141 224 213 235 235 219 141 235 236 224 224 219
 137 236 205 0 4 237 238 239 +219 240 0 ?133 237 204 0 63 241 236 0 +236 .0145 .
0373374514827433 -.02284258014543965 .0145 .0373374514827433 -.02284258014543965
 0 1 133 238 206 0 242 236 243 0 +243 .0145 .0373374514827433 -.0228425801454396
5 .0145 .0373374514827433 -.02284258014543965 0 1 141 239 237 239 239 236 134 24
0 0 0 0 0 0 0 +244 245 136 244 2 9 2 5 5 FFF1 246 247 248 135 245 2 0 45 18 246
 1.021754716667416 162837986620191e-28 1.021754716667416 -.571145589808349 1.021
81071893189 -1.570797375455495 1.021866760905844 -2.571157983369815 1.0218667609
05844 -3.141592653589795 1.021866760905844 -3.71202989608841 1.02181071893189 -4
.71238793172476 1.021754716667416 -5.71203714691657 1.021754716667416 -6.2831853
0717957 127 5 247 3 2 2 2 3 128 5 248 0 .25 .5 .75 1 17 242 0 249 242 242 61 63
 250 238 0 -137 243 207 0 4 238 251 252 +42 253 0 ?133 251 209 0 75 243 254 0 +2
54 .0145 .02284258014543965 -.0373374514827433 .0145 .02284258014543965 -.037337
4514827433 0 1 141 252 238 252 252 243 134 253 0 0 0 0 0 0 +255 256 136 255 2 17
 2 11 5 TTF1 257 258 259 135 256 2 0 45 34 257 4.71238898038469 1.45460410160725
 4.71954518012219 1.45460410160725 4.72454441637864 1.454003434114448 4.72944862
735044 1.453414184085544 4.72934642998783 1.452573207424862 4.72924653095373 1.4
51751143587336 4.72425679879773 1.451159764652636 4.71934904344677 1.45057810154
1172 4.71238898038469 1.4505759898069 4.70551373495763 1.450573903806922 4.70052
116197165 1.451159764652636 4.69556806421214 1.451740993219636 4.69543153078156
 1.45257320742486 4.69529523373684 1.453403980783956 4.70023354439074 1.45400343
4114448 4.70518185734237 1.45460410160725 4.71238898038469 1.45460410160725 127
 11 258 1 2 2 2 2 2 2 2 2 2 1 128 11 259 -.125 0 .125 .25 .375 .5 .625 .75 .875
 1 1.125 17 75 0 260 75 75 65 261 262 251 261 +137 254 210 0 4 251 40 263 +232 2
64 0 ?133 40 211 0 261 254 27 0 +27 .0145 .02284258014543965 -.0373374514827433
 .0145 .02284258014543965 -.0373374514827433 0 1 141 263 251 263 263 254 54 232
 86 0 230 265 222 266 +.0145 0 0 1 0 612303176911189e-31 .04375 20638e-9 6123031
76911189e-31 0 -1 134 264 0 0 0 0 0 0 +267 268 136 267 2 9 2 5 5 FFF1 269 270 27
1 135 268 2 0 45 18 269 .549041610127479 -267206386320483e-28 .549041610127479 .
571145589315212 .548985607863005 1.570797375455495 .548929565889051 2.5711579838
65285 .548929565889051 3.141592653589795 .548929565889051 3.71202989724246 .5489
85607863005 4.71238793172443 .549041610127479 5.71203714576465 .549041610127479
 6.28318530717956 127 5 270 3 2 2 2 3 128 5 271 0 .25 .5 .75 1 14 230 65 0 ?209
 109 272 25 232 +0 0 209 109 46 53 265 85 0 147 0 232 273 +.0145 -.0309359216769
1145 .03093592167691145 .010319 0 -.707106781186548 -.707106781186548 1 0 0 141
 266 274 275 275 232 137 274 195 0 4 276 277 278 +232 279 0 ?141 275 254 266 266
 232 133 276 194 0 82 101 274 0 +274 .0145 .01024942181503392 -.0425537084563091
 .0145 .01024942181503392 -.0425537084563091 0 1 133 277 196 0 280 274 281 0 +28
1 .0145 .01024942181503392 -.0425537084563091 .0145 .01024942181503392 -.0425537
084563091 0 1 141 278 276 278 278 274 134 279 0 0 0 0 0 0 +282 283 136 282 2 9 2
 5 5 FFF1 284 285 286 135 283 2 0 45 18 284 .2363565532699685 4185821611776415e-
29 .2363565532699685 -.571145590335945 .2364125555360235 -1.570797403671355 .236
468597508397 -2.571157982843145 .236468597508397 -3.141592653589795 .23646859750
8397 -3.71202989634144 .2364125555360235 -4.7123879035089 .2363565532699685 -5.7
1203714665931 .2363565532699685 -6.28318530717954 127 5 285 3 2 2 2 3 128 5 286
 0 .25 .5 .75 1 17 280 0 287 280 280 81 82 92 277 0 -137 281 197 0 4 277 288 289
 +148 290 0 ?133 288 199 0 291 281 292 0 +292 .0145 -.01024942181503396 -.042553
7084563091 .0145 -.01024942181503396 -.0425537084563091 0 1 141 289 277 289 289
 281 53 148 90 0 293 223 139 294 +.0145 -803647919695935e-32 -.04375 .010319 0 1
 -1836909530733565e-31 1 0 0 134 290 0 0 0 0 0 0 +295 296 136 295 2 17 2 11 5 TT
F1 297 298 299 135 296 2 0 45 34 297 4.71238898038469 1.45460410160725 4.7195451
803016 1.45460410160725 4.72454441654842 1.454003434093942 4.7294486275942 1.453
4141840349 4.72934642997971 1.45257320736804 4.72924649205079 1.45175082548783 4
.72425753969402 1.451159849729524 4.719346478755 1.45057810074598 4.712388981332
36 1.450575989806898 4.70551373534354 1.450573903823308 4.70052116248109 1.45115
9764592554 4.69556806447477 1.451740993127036 4.69543153078967 1.45257320736804
 4.69529523349573 1.45340398073323 4.70023354422096 1.454003434093942 4.70518185
716352 1.45460410160725 4.71238898038469 1.45460410160725 127 11 298 1 2 2 2 2 2
 2 2 2 2 1 128 11 299 -.125 0 .125 .25 .375 .5 .625 .75 .875 1 1.125 14 293 10 0
 ?150 146 287 25 148 +0 0 150 146 46 141 294 281 300 300 148 141 300 241 294 294
 148 137 241 202 0 4 301 237 302 +148 303 0 ?133 301 201 0 304 292 241 0 +241 .0
145 -.01024942181503394 -.0425537084563091 .0145 -.01024942181503394 -.042553708
4563091 0 1 141 302 301 302 302 241 134 303 0 0 0 0 0 0 +305 306 136 305 2 17 2
 11 5 TTF1 307 308 309 135 306 2 0 45 34 307 4.71238898038469 -1.45460410160725
 4.7052327804674 -1.45460410160725 4.70023354422096 -1.454003434093942 4.6953293
3317501 -1.453414184034834 4.69543153078968 -1.45257320736804 4.6955314300737 -1
.451751143495336 4.70052116248109 -1.451159764592554 4.70542891833653 -1.4505781
01482002 4.71238898133236 -1.450575989806898 4.71926144789091 -1.450573904708452
 4.72425753969402 -1.451159849729526 4.72920984081586 -1.451740658949922 4.72934
642997971 -1.45257320736804 4.72948272791293 -1.453403980655566 4.72454441654842
 -1.454003434093944 4.71959610360645 -1.45460410160725 4.71238898038469 -1.45460
410160725 127 11 308 1 2 2 2 2 2 2 2 2 2 1 128 11 309 -.125 0 .125 .25 .375 .5 .
625 .75 .875 1 1.125 17 304 0 310 304 304 64 291 311 301 0 -137 292 200 0 4 288
 301 312 +139 313 0 ?141 312 288 312 312 292 134 313 0 0 0 0 0 0 +314 315 136 31
4 2 9 2 5 5 FFF1 316 317 318 135 315 2 0 45 18 316 6.04682875390962 418582161177
501e-28 6.04682875390962 .571145590834195 6.04677275164356 1.57079740367102 6.04
671670967119 2.57115798234536 6.04671670967119 3.141592653589795 6.0467167096711
9 3.712029895073315 6.04677275164356 4.7123879035089 6.04682875390962 5.71203714
792802 6.04682875390962 6.28318530717963 127 5 317 3 2 2 2 3 128 5 318 0 .25 .5
 .75 1 15 310 11 0 304 293 0 18 64 13 0 291 81 61 319 5e-7 4 17 291 0 320 291 29
1 64 304 311 288 304 +16 311 12 0 5e-7 291 92 250 0 0 0 4 16 92 15 0 5e-7 82 86
 311 0 0 0 4 16 250 8 0 5e-7 63 311 262 0 0 0 4 17 63 0 231 63 63 61 242 250 237
 242 +16 262 5 0 5e-7 75 250 0 0 0 0 4 15 231 64 0 63 209 206 17 82 0 272 82 82
 81 280 92 276 280 +15 272 67 0 82 230 260 15 260 66 0 75 230 0 15 320 69 0 291
 109 0 14 109 68 0 ?230 88 166 25 139 +0 0 230 88 46 15 166 70 0 71 109 320 13 4
6 2 0 0 0 0 0 0 29 35 14 35 80 0 ?321 0 51 25 223 +0 0 321 0 46 14 321 77 0 ?110
 35 195 25 113 +0 0 110 35 46 15 51 82 0 47 35 200 15 200 81 0 198 35 0 14 110 7
4 0 ?88 321 186 25 222 +0 0 88 321 46 15 195 79 0 193 321 181 54 113 97 0 321 21
6 102 322 +.0145 0 0 1 0 612303176911189e-31 .04375 20638e-9 612303176911189e-31
 0 -1 53 216 96 0 323 97 113 324 +.0145 .04375 0 .010319 0 0 1 1 0 0 141 322 325
 326 326 113 137 325 155 0 4 197 327 328 +113 329 0 ?141 326 330 322 322 113 137
 330 170 0 4 183 331 332 +113 333 0 ?133 183 169 0 179 334 330 0 +330 .0145 -.02
284258014543965 .0373374514827433 .0145 -.02284258014543965 .0373374514827433 0
 1 133 331 171 0 182 330 122 0 +122 .0145 -.02284258014543965 .0373374514827433
 .0145 -.02284258014543965 .0373374514827433 0 1 141 332 183 332 332 330 134 333
 0 0 0 0 0 0 +335 336 136 335 2 9 2 5 5 FFF1 337 338 339 135 336 2 0 45 18 337 3
.690634263717275 2672063863205725e-29 3.690634263717275 .571145590081329 3.69057
8261457535 1.57079729093837 3.690522219478845 2.571157983087605 3.69052221947884
5 3.141592653589795 3.690522219478845 3.712029895160095 3.69057826145122 4.71238
79035516 3.690634263717275 5.71203714785536 3.690634263717275 6.28318530717961 1
27 5 338 3 2 2 2 3 128 5 339 0 .25 .5 .75 1 17 182 0 340 182 182 59 179 178 331
 0 -137 122 172 0 4 331 117 341 +265 342 0 ?141 341 331 341 341 122 134 342 0 0
 0 0 0 0 +343 344 136 343 2 17 2 11 5 TTF1 345 346 347 135 344 2 0 45 34 345 4.7
1238898038469 -1.45460410160725 4.70523278046684 -1.45460410160725 4.70023354422
122 -1.454003434093974 4.69532933317546 -1.453414184034822 4.69543153078966 -1.4
52573207368126 4.69553143007325 -1.451751143495368 4.70052116248031 -1.451159764
592646 4.70542891833593 -1.450578101482092 4.71238898133091 -1.4505759898069 4.7
1926422718048 -1.45057390386513 4.72425679964549 -1.451159764752614 4.7292098973
2981 -1.451740993412884 4.72934643001212 -1.452573207595058 4.72948277704505 -1.
453404290179676 4.72454515656112 -1.454003347077058 4.71959354363912 -1.45460410
160725 4.71238898038469 -1.45460410160725 127 11 346 1 2 2 2 2 2 2 2 2 2 1 128 1
1 347 -.125 0 .125 .25 .375 .5 .625 .75 .875 1 1.125 15 340 32 0 182 147 0 18 59
 34 0 179 80 44 57 5e-7 4 18 80 37 0 184 76 59 60 5e-7 4 18 44 30 0 121 59 72 28
 5e-7 4 18 72 27 0 136 44 69 348 5e-7 4 29 348 105 0 72 56 60 .0145 -.0425537084
563091 .01024942181503394 29 56 104 0 49 349 348 .0145 .0425537084563091 -.01024
942181503394 29 60 106 0 80 348 57 .0145 -.0373374514827433 .02284258014543965 2
9 349 103 0 79 350 56 .0145 -.01024942181503394 .0425537084563091 18 79 44 0 193
 68 76 349 5e-7 4 29 350 102 0 68 319 349 .0145 .0373374514827433 .0228425801454
3965 18 68 48 0 198 55 79 350 5e-7 4 29 319 101 0 64 0 350 .0145 -.0102494218150
3394 -.04255370845630905 14 147 31 0 ?138 112 351 25 265 +0 0 138 112 46 14 112
 38 0 ?147 352 353 25 102 +0 0 147 352 46 15 351 35 0 187 147 340 17 187 0 351 1
87 187 80 184 180 354 0 -133 354 166 0 187 355 334 0 +334 .0145 -.03733745148274
33 .02284258014543965 .0145 -.0373374514827433 .02284258014543965 0 1 137 355 16
5 0 4 188 354 356 +222 357 0 ?137 334 167 0 4 354 183 358 +265 359 0 ?141 358 35
4 358 358 334 134 359 0 0 0 0 0 0 +360 361 136 360 2 17 2 11 5 TTF1 362 363 364
 135 361 2 0 45 34 362 4.71238898038469 1.45460410160725 4.71954241242114 1.4546
0410160725 4.72454515656112 1.454003347077056 4.7294486654521 1.453414509211742
 4.72934643001212 1.452573207595058 4.72924653236989 1.451751143857324 4.7242567
9964549 1.451159764752612 4.71934904480404 1.45057810160058 4.71238898133091 1.4
505759898069 4.70551373597934 1.45057390374838 4.7005211624803 1.451159764592646
 4.69556806447414 1.451740993127426 4.69543153078966 1.452573207368126 4.6952952
3349628 1.453403980733342 4.70023354422122 1.454003434093974 4.70518185716389 1.
45460410160725 4.71238898038469 1.45460410160725 127 11 363 1 2 2 2 2 2 2 2 2 2
 1 128 11 364 -.125 0 .125 .25 .375 .5 .625 .75 .875 1 1.125 133 188 164 0 184 3
65 355 0 +355 .0145 -.0373374514827433 .0228425801454397 .0145 -.037337451482743
3 .0228425801454397 0 1 141 356 188 356 356 355 134 357 0 0 0 0 0 0 +366 367 136
 366 2 9 2 5 5 FFF1 368 369 370 135 367 2 0 45 18 368 4.16334737025721 -16283798
66201915e-29 4.16334737025721 -.571145590990062 4.163403372523265 -1.57079740362
7985 4.16345941449564 -2.57115798218257 4.16345941449564 -3.141592653589795 4.16
345941449564 -3.71202989511351 4.16340337251695 -4.71238801624122 4.163347370257
21 -5.71203714789098 4.16334737025721 -6.2831853071796 127 5 369 3 2 2 2 3 128 5
 370 0 .25 .5 .75 1 137 365 162 0 4 371 188 372 +102 373 0 ?133 371 161 0 191 37
4 365 0 +365 .0145 .01024942181503394 .0425537084563091 .0145 .01024942181503394
 .0425537084563091 0 1 141 372 371 372 372 365 134 373 0 0 0 0 0 0 +375 376 136
 375 2 17 2 11 5 TTF1 377 378 379 135 376 2 0 45 34 377 4.71238898038469 -1.4546
0410160725 4.70523278064671 -1.45460410160725 4.70023354439073 -1.45400343411444
6 4.69532933341897 -1.45341418408549 4.69543153078155 -1.45257320742486 4.695531
42981563 -1.451751143587314 4.70052116197164 -1.451159764652634 4.70542891732012
 -1.45057810154149 4.71238898038469 -1.450575989806896 4.71926422580863 -1.45057
3903806602 4.72425679879773 -1.451159764652634 4.72920989655749 -1.4517409932196
18 4.72934642998782 -1.45257320742486 4.72948272703228 -1.45340398078392 4.72454
441637864 -1.454003434114446 4.71959610342759 -1.45460410160725 4.71238898038469
 -1.45460410160725 127 11 378 1 2 2 2 2 2 2 2 2 2 1 128 11 379 -.125 0 .125 .25
 .375 .5 .625 .75 .875 1 1.125 17 191 0 380 191 191 76 78 185 371 0 -137 374 160
 0 4 192 371 381 +26 382 0 ?133 192 159 0 78 383 374 0 +374 .0145 .0102494218150
3394 .0425537084563091 .0145 .01024942181503394 .0425537084563091 0 1 141 381 19
2 381 381 374 134 382 0 0 0 0 0 0 +384 385 136 384 2 9 2 5 5 FFF1 386 387 388 13
5 385 2 0 45 18 386 2.905236100319825 -4185821611776415e-29 2.905236100319825 .5
71145589812649 2.90518009805535 1.57079737545583 2.905124056081395 2.57115798337
0155 2.905124056081395 3.141592653589795 2.905124056081395 3.7120298964223 2.905
18009805535 4.71238793172376 2.905236100319825 5.71203714657694 2.90523610031982
5 6.28318530717954 127 5 387 3 2 2 2 3 128 5 388 0 .25 .5 .75 1 137 383 157 0 4
 327 192 389 +102 390 0 ?133 327 156 0 196 325 383 0 +383 .0145 -.01024942181503
394 .0425537084563091 .0145 -.01024942181503394 .0425537084563091 0 1 141 389 32
7 389 389 383 134 390 0 0 0 0 0 0 +391 392 136 391 2 17 2 11 5 TTF1 393 394 395
 135 392 2 0 45 34 393 4.71238898038469 1.45460410160725 4.71954518012209 1.4546
0410160725 4.72454441637864 1.454003434114446 4.72944862735059 1.453414184085536
 4.72934642998782 1.45257320742486 4.72924653095356 1.451751143587258 4.72425679
879773 1.451159764652634 4.71934904344762 1.45057810154133 4.71238898038469 1.45
0575989806898 4.7055137349591 1.450573903806762 4.70052116197165 1.4511597646526
34 4.69556806421232 1.4517409932196 4.69543153078155 1.45257320742486 4.69529523
373667 1.453403980783846 4.70023354439074 1.454003434114446 4.70518185734161 1.4
5460410160725 4.71238898038469 1.45460410160725 127 11 394 1 2 2 2 2 2 2 2 2 2 1
 128 11 395 -.125 0 .125 .25 .375 .5 .625 .75 .875 1 1.125 17 196 0 353 196 196
 79 193 189 327 0 -15 353 42 0 196 112 380 15 380 39 0 191 112 0 14 352 45 0 ?11
2 323 396 25 151 +0 0 112 323 46 14 323 52 0 ?352 37 397 25 216 +0 0 352 37 46 1
5 396 49 0 204 352 398 53 151 94 0 352 42 97 399 +.0145 .03093592167691145 .0309
3592167691145 .010319 0 -.707106781186548 .707106781186548 1 0 0 53 97 95 0 146
 151 216 400 +.0145 -.03093592167691145 -.03093592167691145 .010319 0 .707106781
186548 -.707106781186548 1 0 0 141 399 401 402 402 151 137 401 147 0 4 403 202 4
04 +151 405 0 ?141 402 406 399 399 151 137 406 152 0 4 407 197 408 +151 409 0 ?1
33 407 151 0 201 410 406 0 +406 .0145 .0373374514827433 .02284258014543965 .0145
 .0373374514827433 .02284258014543965 0 1 133 197 154 0 193 406 325 0 +325 .0145
 -.01024942181503392 .0425537084563091 .0145 -.01024942181503392 .04255370845630
91 0 1 141 408 407 408 408 406 134 409 0 0 0 0 0 0 +411 412 136 411 2 17 2 11 5
 TTF1 413 414 415 135 412 2 0 45 34 413 4.71238898038469 -1.45460410160725 4.705
23278064728 -1.45460410160725 4.70023354439074 -1.454003434114446 4.695329333418
66 -1.45341418408552 4.69543153078156 -1.45257320742486 4.69553142981595 -1.4517
51143587216 4.70052116197165 -1.451159764652636 4.70542891732083 -1.450578101541
466 4.71238898038469 -1.450575989806896 4.71926422580873 -1.450573903806626 4.72
425679879773 -1.451159764652634 4.7292098965575 -1.451740993219608 4.72934642998
782 -1.45257320742486 4.72948272703225 -1.453403980783822 4.72454441637864 -1.45
4003434114448 4.71959610342844 -1.45460410160725 4.71238898038469 -1.45460410160
725 127 11 414 1 2 2 2 2 2 2 2 2 2 1 128 11 415 -.125 0 .125 .25 .375 .5 .625 .7
5 .875 1 1.125 17 201 0 398 201 201 68 198 194 407 0 -137 410 150 0 4 202 407 41
6 +223 417 0 ?133 202 149 0 198 401 410 0 +410 .0145 .0373374514827433 .02284258
014543965 .0145 .0373374514827433 .02284258014543965 0 1 141 416 202 416 416 410
 134 417 0 0 0 0 0 0 +418 419 136 418 2 9 2 5 5 FFF1 420 421 422 135 419 2 0 45
 18 420 2.119837936922375 -1628379866201915e-29 2.119837936922375 .5711455898963
01 2.1197819346579 1.57079737545583 2.11972589268395 2.571157983278515 2.1197258
9268395 3.141592653589795 2.11972589268395 3.712029896096 2.1197819346579 4.7123
8793172443 2.119837936922375 5.71203714691227 2.119837936922375 6.28318530717957
 127 5 421 3 2 2 2 3 128 5 422 0 .25 .5 .75 1 15 398 46 0 201 352 0 133 403 146
 0 204 423 401 0 +401 .0145 .02284258014543965 .0373374514827433 .0145 .02284258
014543965 .0373374514827433 0 1 141 404 403 404 404 401 134 405 0 0 0 0 0 0 +424
 425 136 424 2 17 2 11 5 TTF1 426 427 428 135 425 2 0 45 34 426 4.71238898038469
 1.45460410160725 4.719545180122 1.45460410160725 4.72454441637864 1.45400343411
4446 4.72944862735027 1.453414184085586 4.72934642998782 1.45257320742486 4.7292
465309539 1.451751143587356 4.72425679879772 1.451159764652634 4.71934904344889
 1.450578101541422 4.71238898038469 1.450575989806896 4.70551373495803 1.4505739
0380667 4.70052116197165 1.451159764652636 4.69556806421218 1.451740993219834 4.
69543153078156 1.45257320742486 4.69529523373676 1.453403980783956 4.70023354439
074 1.454003434114446 4.70518185734245 1.45460410160725 4.71238898038469 1.45460
410160725 127 11 427 1 2 2 2 2 2 2 2 2 2 1 128 11 428 -.125 0 .125 .25 .375 .5 .
625 .75 .875 1 1.125 17 204 0 396 204 204 55 67 199 403 0 -137 423 145 0 4 205 4
03 429 +26 430 0 ?133 205 144 0 67 221 423 0 +423 .0145 .02284258014543965 .0373
374514827433 .0145 .02284258014543965 .0373374514827433 0 1 141 429 205 429 429
 423 134 430 0 0 0 0 0 0 +431 432 136 431 2 9 2 5 5 FFF1 433 434 435 135 432 2 0
 45 18 433 2.592551043462315 2672063863205725e-29 2.592551043462315 -.5711455878
40102 2.59260704572679 -1.57079737545583 2.59266308770074 -2.5711579853441 2.592
66308770074 -3.141592653589795 2.59266308770074 -3.712029896096 2.59260704572679
 -4.71238793172443 2.592551043462315 -5.7120371469202 2.592551043462315 -6.28318
530717956 127 5 434 3 2 2 2 3 128 5 435 0 .25 .5 .75 1 137 221 142 0 4 211 205 4
36 +216 437 0 ?141 436 211 436 436 221 134 437 0 0 0 0 0 0 +438 439 136 438 2 17
 2 11 5 TTF1 440 441 442 135 439 2 0 45 34 440 4.71238898038469 -1.4546041016072
5 4.7052327804672 -1.45460410160725 4.70023354422122 -1.454003434093974 4.695329
33317536 -1.453414184034854 4.69543153078966 -1.452573207368126 4.69553143007334
 -1.451751143495344 4.70052116248031 -1.451159764592646 4.70542891833623 -1.4505
7810148207 4.71238898133091 -1.450575989806898 4.71926422718118 -1.4505739038651
5 4.72425679964549 -1.451159764752614 4.72920989733009 -1.451740993412976 4.7293
4643001212 -1.452573207595056 4.72948277704479 -1.453404290179684 4.724545156561
12 -1.454003347077056 4.7195935436393 -1.45460410160725 4.71238898038469 -1.4546
0410160725 127 11 441 1 2 2 2 2 2 2 2 2 2 1 128 11 442 -.125 0 .125 .25 .375 .5
 .625 .75 .875 1 1.125 14 146 17 0 ?293 138 175 25 97 +0 0 293 138 46 141 400 93
 443 443 97 141 443 101 400 400 97 137 101 192 0 4 90 276 444 +97 445 0 ?141 444
 90 444 444 101 134 445 0 0 0 0 0 0 +446 447 136 446 2 17 2 11 5 TTF1 448 449 45
0 135 447 2 0 45 34 448 4.71238898038469 -1.454604101607248 4.70523278028646 -1.
454604101607248 4.70023354405144 -1.45400343407347 4.69532933293182 -1.453414183
98408 4.69543153079777 -1.452573207311306 4.69553143033098 -1.45175114340362 4.7
0052116298974 -1.451159764532566 4.70542891934843 -1.450578101422876 4.712388982
27858 -1.450575989806896 4.71926144926075 -1.45057390476668 4.72425754054096 -1.
451159849829352 4.7292098415886 -1.45174065914307 4.72934643000401 -1.4525732075
38238 4.72948277792588 -1.453404290051312 4.72454515673074 -1.454003347056584 4.
71959354381854 -1.454604101607248 4.71238898038469 -1.454604101607248 127 11 449
 1 2 2 2 2 2 2 2 2 2 1 128 11 450 -.125 0 .125 .25 .375 .5 .625 .75 .875 1 1.125
 14 37 59 0 ?323 209 203 25 26 +0 0 323 209 46 15 397 56 0 52 323 210 17 52 0 39
7 52 52 31 47 30 214 0 -15 210 53 0 207 323 0 133 214 136 0 52 451 212 0 +212 .0
145 .0425537084563091 .01024942181503394 .0145 .0425537084563091 .01024942181503
394 0 1 137 451 135 0 4 53 214 452 +223 453 0 ?133 53 134 0 47 0 451 0 +451 .014
5 .0425537084563091 .01024942181503394 .0145 .0425537084563091 .0102494218150339
4 0 1 141 452 53 452 452 451 134 453 0 0 0 0 0 0 +454 455 136 454 2 9 2 5 5 FFF1
 456 457 458 135 455 2 0 45 18 456 1.807152880064865 304087292317429e-28 1.80715
2880064865 -.571145589761039 1.80720888233092 -1.57079740362832 1.80726492430329
5 -2.57115798342107 1.807264924303295 -3.141592653589795 1.807264924303295 -3.71
2029897087385 1.807208882324605 -4.71238801624122 1.807152880064865 -5.712037145
91058 1.807152880064865 -6.28318530717956 127 5 457 3 2 2 2 3 128 5 458 0 .25 .5
 .75 1 15 203 61 0 67 37 190 15 190 60 0 78 37 0 141 328 197 328 328 325 134 329
 0 0 0 0 0 0 +459 460 136 459 2 9 2 5 5 FFF1 461 462 463 135 460 2 0 45 18 461 3
.37794920685976 -4185821611776415e-29 3.37794920685976 -.571145589979336 3.37800
5209124235 -1.57079737545516 3.37806125109819 -2.571157983202 3.37806125109819 -
3.141592653589795 3.37806125109819 -3.71202989625488 3.378005209124235 -4.712387
93172376 3.37794920685976 -5.71203714674424 3.37794920685976 -6.28318530717963 1
27 5 462 3 2 2 2 3 128 5 463 0 .25 .5 .75 1 141 324 212 464 464 216 141 464 221
 324 324 216 15 181 78 0 179 321 0 15 186 76 0 184 110 177 15 177 75 0 136 110 0
 14 150 3 0 ?0 293 249 25 42 +0 0 0 293 46 15 287 14 0 280 293 310 15 249 7 0 24
2 150 465 15 465 4 0 261 150 0 17 261 0 465 261 261 65 75 262 40 0 -141 273 334
 466 466 265 141 466 122 273 273 265 141 234 451 467 467 223 141 467 410 234 234
 223 141 233 355 468 468 222 141 468 137 233 233 222 137 137 180 0 4 132 155 469
 +222 470 0 ?141 469 132 469 469 137 134 470 0 0 0 0 0 0 +471 472 136 471 2 9 2
 5 5 FFF1 473 474 475 135 472 2 0 45 18 473 4.47603242711472 3040872923173265e-2
9 4.47603242711472 .571145588014662 4.475976424850245 1.57079737545516 4.4759203
82876295 2.571157985176 4.475920382876295 3.141592653589795 4.475920382876295 3.
712029898228755 4.475976424850245 4.71238793172376 4.47603242711472 5.7120371447
6384 4.47603242711472 6.28318530717962 127 5 474 3 2 2 2 3 128 5 475 0 .25 .5 .7
5 1 141 215 214 215 215 212 134 217 0 0 0 0 0 0 +476 477 136 476 2 17 2 11 5 TTF
1 478 479 480 135 477 2 0 45 34 478 4.71238898038469 1.45460410160725 4.71954241
241896 1.45460410160725 4.72454515656112 1.454003347077058 4.72944866545222 1.45
3414509211988 4.72934643001212 1.452573207595058 4.72924653236979 1.451751143857
256 4.72425679964549 1.451159764752614 4.71934904480357 1.45057810160058 4.71238
898133091 1.450575989806898 4.70551373598052 1.45057390374838 4.7005211624803 1.
451159764592646 4.69556806447438 1.451740993127262 4.69543153078966 1.4525732073
68126 4.69529523349607 1.453403980733274 4.70023354422122 1.454003434093974 4.70
518185716351 1.45460410160725 4.71238898038469 1.45460410160725 127 11 479 1 2 2
 2 2 2 2 2 2 2 1 128 11 480 -.125 0 .125 .25 .375 .5 .625 .75 .875 1 1.125 15 11
1 73 0 121 88 84 17 159 0 481 159 159 72 136 176 155 0 -15 481 25 0 159 138 0 15
 89 18 0 85 146 0 141 152 243 482 482 42 141 482 27 152 152 42 141 149 160 483 4
83 139 141 483 292 149 149 139 15 130 28 0 123 138 481 141 114 383 484 484 102 1
41 484 365 114 114 102 141 96 95 96 96 93 134 98 0 0 0 0 0 0 +485 486 136 485 2
 17 2 11 5 TTF1 487 488 489 135 486 2 0 45 34 487 4.71238898038469 1.45460410160
725 4.71954241260199 1.45460410160725 4.72454515673074 1.454003347056582 4.72944
866569605 1.453414509160954 4.72934643000401 1.452573207538238 4.7292464934674 1
.451750825758034 4.72425754054096 1.451159849829354 4.71934648011446 1.450578100
80523 4.71238898227858 1.450575989806896 4.70551373636369 1.450573903764902 4.70
052116298974 1.451159764532566 4.6955680647366 1.451740993034894 4.6954315307977
7 1.452573207311306 4.69529523325531 1.45340398068276 4.70023354405144 1.4540034
3407347 4.70518185698607 1.45460410160725 4.71238898038469 1.45460410160725 127
 11 488 1 2 2 2 2 2 2 2 2 2 1 128 11 489 -.125 0 .125 .25 .375 .5 .625 .75 .875
 1 1.125 19 36 83 0 4 0 29 25 S141 41 40 41 41 27 134 43 0 0 0 0 0 0 +490 491 13
6 490 2 17 2 11 5 TTF1 492 493 494 135 491 2 0 45 34 492 4.71238898038469 -1.454
60410160725 4.70523278064748 -1.45460410160725 4.70023354439075 -1.4540034341144
48 4.69532933341887 -1.45341418408557 4.69543153078156 -1.45257320742486 4.69553
142981574 -1.451751143587222 4.70052116197165 -1.451159764652636 4.7054289173217
6 -1.450578101541378 4.71238898038469 -1.4505759898069 4.71926422581029 -1.45057
390380672 4.72425679879773 -1.451159764652636 4.72920989655724 -1.45174099321966
8 4.72934642998782 -1.45257320742486 4.72948272703255 -1.453403980783876 4.72454
441637864 -1.454003434114446 4.71959610342767 -1.45460410160725 4.71238898038469
 -1.45460410160725 127 11 493 1 2 2 2 2 2 2 2 2 2 1 128 11 494 -.125 0 .125 .25
 .375 .5 .625 .75 .875 1 1.125 141 39 423 495 495 26 141 495 374 39 39 26 74 20
 34 1 0 23 0 0 0 0 0 0 0 0 0 0 0 0 0 0 0 0 0 0 0 80 1 32 496 497 8017 0 0 0 0 0
 0 0 0 0 TTTTTTTTTTTTTF3 84 20 33 skf_bearing_6311_2_379 13 497 SDL/TYSA_NAME81
 1 14 69 32 3 0 0 0 0 498 70 15 0 3 0 0 4 1 20 4 499 499 1 T13 16 44 0 3 0 500 0
 0 501 0 54 17 52 0 502 503 0 0 +.0145 0 0 1 0 0 .04375 .010319 0 0 -1 31 18 68
 0 504 505 0 0 +.002 0 0 1 0 0 0 1 0 .0275 29 19 60 0 506 507 0 500251695536441e
-33 .03767 0 19 20 1 0 3 501 0 508 V16 21 37 0 ?509 0 510 511 0 0 3 18 22 38 0 5
09 0 512 513 ?3 17 509 0 514 509 509 22 515 21 0 515 +18 512 33 0 516 22 506 517
 ?3 29 513 57 0 22 517 518 .0228375872409229 .03767 0 29 517 56 0 512 519 513 .0
0616241275907712 .03767 0 29 518 58 0 520 513 507 0 .0295 0 18 520 23 0 521 506
 522 518 ?3 29 507 59 0 522 518 19 .002 .0275 0 18 522 18 0 523 520 524 507 ?3 1
7 523 0 525 523 523 522 526 504 0 526 +18 524 13 0 527 522 528 529 ?3 17 527 0 5
30 527 527 524 531 532 0 531 +18 528 9 0 533 524 534 519 ?3 29 529 54 0 524 535
 519 .027 .0275 0 29 535 53 0 534 0 529 .029 .0295 0 29 519 55 0 528 529 517 .02
9 .03767 0 18 534 6 0 536 528 0 535 ?3 17 536 0 537 536 536 534 538 539 0 538 +1
5 537 14 0 536 540 541 17 538 0 542 538 538 534 536 539 0 0 -16 539 5 0 ?536 543
 0 544 0 0 3 16 543 8 0 ?533 532 539 545 0 0 3 31 544 66 0 539 546 505 0 +.029 0
 0 1 0 0 0 1 0 .0295 31 546 65 0 532 547 544 0 +.027 0 0 1 0 0 0 1 0 .0275 31 50
5 67 0 548 544 18 0 +0 0 0 1 0 0 0 1 0 .0295 16 548 22 0 ?521 549 504 505 0 0 3
 17 521 0 550 521 521 520 551 548 0 551 +16 549 27 0 ?552 510 548 553 0 0 3 16 5
04 17 0 ?523 548 532 18 0 0 3 16 532 12 0 ?527 504 543 546 0 0 3 17 552 0 554 55
2 552 506 555 549 0 555 +16 510 32 0 ?516 21 549 547 0 0 3 31 553 61 0 549 0 545
 0 +0 0 0 1 0 0 0 1 0 .03767 31 545 62 0 543 553 511 0 +.029 0 0 1 0 0 0 1 0 .03
767 31 511 63 0 21 545 547 0 +.0228375872409229 0 0 1 0 0 0 1 0 .03767 31 547 64
 0 510 511 546 0 +.00616241275907712 0 0 1 0 0 0 1 0 .03767 17 516 0 556 516 516
 512 557 510 0 557 +15 556 39 0 516 502 558 17 557 0 559 557 557 512 516 510 0 0
 -15 559 31 0 557 560 0 14 560 30 0 ?561 502 554 16 562 +0 0 561 502 508 14 561
 25 0 ?563 560 550 16 564 +0 0 563 560 508 14 502 35 0 ?560 500 556 16 17 -0 0 5
60 500 508 15 554 34 0 552 560 559 51 562 48 0 560 564 565 0 +.00308120637953856
 0 0 -1 0 0 .03767 0 1 0 13 508 2 0 0 0 0 0 0 20 500 14 500 40 0 ?502 0 514 16 5
66 +0 0 502 0 508 15 514 42 0 509 500 567 51 566 50 0 500 565 503 0 +.0259187936
2046145 0 0 -1 0 0 .03767 0 1 0 54 565 49 0 563 562 566 0 +.002 0 0 1 0 0 .0295
 .002 0 0 -1 50 503 51 0 568 566 17 0 +.029 .033585 0 1 0 0 0 1 0 14 568 3 0 ?0
 540 569 16 503 +0 0 0 540 508 14 540 10 0 ?568 570 537 16 571 +0 0 568 570 508
 15 569 7 0 533 568 542 17 533 0 569 533 533 528 572 543 0 572 +15 542 4 0 538 5
68 0 17 572 0 567 572 572 528 533 543 0 0 -15 567 41 0 572 500 0 14 570 15 0 ?54
0 563 530 16 573 -0 0 540 563 508 54 571 45 0 540 0 573 0 +.027 0 0 1 0 0 .0295
 .002 0 0 -1 51 573 46 0 570 571 564 0 +.0145 0 0 -1 0 0 .0275 0 1 0 50 564 47 0
 561 573 562 0 +2501258477682205e-34 .033585 0 -1 612303176911189e-31 0 -6123031
76911189e-31 -1 0 14 563 20 0 ?570 561 525 16 565 +0 0 570 561 508 15 530 19 0 5
27 570 574 15 574 16 0 526 570 0 17 526 0 574 526 526 522 523 504 0 0 -15 525 24
 0 523 563 575 15 575 21 0 551 563 0 17 551 0 575 551 551 520 521 548 0 0 -15 55
0 29 0 521 561 576 15 576 26 0 555 561 0 17 555 0 576 555 555 506 552 549 0 0 -1
8 506 28 0 552 512 520 19 ?3 15 558 36 0 515 502 0 17 515 0 558 515 515 22 509 2
1 0 0 -15 541 11 0 531 540 0 17 531 0 541 531 531 524 527 532 0 0 -19 501 43 0 3
 0 20 16 S74 20 499 1 0 14 0 0 0 0 0 0 0 0 0 0 0 0 0 0 0 0 0 0 0 84 20 498 skf_b
earing_6311_2_281 1 5 117 32 2 0 0 0 0 577 70 6 0 2 0 0 4 1 20 4 578 578 1 T13 7
 74 0 2 0 579 0 0 580 0 54 8 88 0 581 582 0 0 +.001275 0 0 1 0 0 .05185 85e-5 0
 0 -1 31 9 116 0 583 584 0 0 +.02648719254589165 0 0 1 0 0 0 1 0 .049725 29 10 1
02 0 585 586 0 .029 .058 0 19 11 1 0 2 580 0 587 V16 12 67 0 ?588 0 589 590 0 0
 2 18 13 68 0 588 0 591 592 ?2 17 588 0 593 588 588 13 594 12 0 594 +18 591 63 0
 595 13 585 596 ?2 29 592 96 0 13 596 597 .028575 .05185 0 29 596 95 0 591 598 5
92 .029 .05185 0 29 597 97 0 599 592 600 .002 .06 0 18 599 48 0 601 602 603 597
 ?2 29 600 98 0 604 597 605 .002112086590060375 .0519976009510169 0 18 604 28 0
 606 607 608 600 ?2 29 605 99 0 609 600 610 -376566453800381e-33 .05185 0 18 609
 38 0 611 603 607 605 ?2 29 610 100 0 608 605 586 .00251280745410837 .049725 0 1
8 608 23 0 612 604 613 610 ?2 29 586 101 0 607 610 10 425e-6 .05185 0 18 607 33
 0 614 609 604 586 ?2 17 614 0 615 614 614 607 616 617 0 616 +15 615 39 0 614 61
8 619 17 616 0 620 616 616 607 614 617 0 0 -16 617 32 0 ?614 621 622 623 0 0 2 1
6 621 37 0 ?611 624 617 625 0 0 2 16 622 27 0 ?606 617 626 627 0 0 2 31 623 104
 0 617 628 629 0 +425e-6 0 0 1 0 0 0 1 0 .05185 31 628 103 0 630 0 623 0 +.00608
68474398713 0 0 1 0 0 0 1 0 .049725 31 629 105 0 626 623 631 0 +.002512807454108
375 0 0 1 0 0 0 1 0 .049725 16 626 22 0 ?612 622 630 629 0 0 2 31 631 106 0 632
 629 590 0 +.027 0 0 1 0 0 0 1 0 .06 16 632 52 0 ?633 634 635 631 0 0 2 31 590 1
07 0 12 631 636 0 +.028575 0 0 1 0 0 0 1 0 .05185 31 636 108 0 637 590 625 0 +.0
229131525601287 0 0 1 0 0 0 1 0 .049725 16 637 12 0 ?638 630 639 636 0 0 2 31 62
5 109 0 621 636 640 0 +0 0 0 1 0 0 0 1 0 .05185 31 640 110 0 634 625 641 0 +.029
 0 0 1 0 0 0 1 0 .058 16 634 57 0 ?642 589 632 640 0 0 2 31 641 111 0 635 640 64
3 0 +.002 0 0 1 0 0 0 1 0 .06 16 635 47 0 ?601 632 624 641 0 0 2 31 643 112 0 58
9 641 627 0 +.029 0 0 1 0 0 0 1 0 .05185 16 589 62 0 ?595 12 634 643 0 0 2 31 62
7 113 0 622 643 644 0 +.002112086590060375 0 0 1 0 0 0 1 0 .0519976009510169 31
 644 114 0 639 627 584 0 +.02688791340993965 0 0 1 0 0 0 1 0 .0519976009510169 1
6 639 8 0 ?645 637 583 644 0 0 2 31 584 115 0 624 644 9 0 +0 0 0 1 0 0 0 1 0 .05
8 16 624 42 0 ?646 635 621 584 0 0 2 17 646 0 647 646 646 603 648 624 0 648 +15
 647 49 0 646 649 650 18 603 43 0 646 599 609 651 ?2 17 648 0 652 648 648 603 64
6 624 0 0 -15 652 41 0 648 653 0 14 653 40 0 ?618 649 654 7 655 +0 0 618 649 587
 14 618 35 0 ?581 653 615 7 656 -0 0 581 653 587 14 649 45 0 ?653 657 647 7 658
 +0 0 653 657 587 15 654 44 0 611 653 652 50 655 78 0 653 659 656 0 +-1882832269
001905e-34 .054925 0 -1 612303176911189e-31 0 -612303176911189e-31 -1 0 13 587 2
 0 0 0 0 0 0 11 579 14 579 70 0 ?660 0 593 7 661 -0 0 660 0 587 14 660 65 0 ?662
 579 663 7 664 -0 0 662 579 587 15 593 72 0 588 579 665 54 661 86 0 579 664 582
 0 +.027725 0 0 1 0 0 .05185 85e-5 0 0 -1 51 664 85 0 660 666 661 0 +.0287875 0
 0 -1 0 0 .05185 0 1 0 51 582 87 0 667 661 8 0 +.02470017255301015 0 0 -1 0 0 .0
49725 0 1 0 14 667 10 0 ?668 669 670 7 582 -0 0 668 669 587 14 668 3 0 ?0 667 67
1 7 659 -0 0 0 667 587 14 669 15 0 ?667 672 673 7 674 -0 0 667 672 587 15 670 14
 0 675 667 676 17 675 0 670 675 675 677 678 583 0 678 +15 676 11 0 679 667 0 17
 679 0 676 679 679 680 638 637 0 0 -18 680 13 0 638 613 681 598 ?2 17 638 0 673
 638 638 680 679 637 0 679 +15 673 19 0 638 669 682 15 682 16 0 683 669 0 17 683
 0 682 683 683 613 684 630 0 0 -18 613 18 0 684 608 680 685 ?2 17 684 0 686 684
 684 613 683 630 0 683 +16 630 17 0 ?684 626 637 628 0 0 2 15 686 24 0 684 672 6
87 14 672 20 0 ?669 688 686 7 689 -0 0 669 688 587 15 687 21 0 690 672 0 17 690
 0 687 690 690 608 612 626 0 0 -17 612 0 691 612 612 608 690 626 0 690 +15 691 2
9 0 612 688 692 14 688 25 0 ?672 581 691 7 693 -0 0 672 581 587 15 692 26 0 694
 688 0 17 694 0 692 694 694 604 606 622 0 0 -17 606 0 695 606 606 604 694 622 0
 694 +15 695 34 0 606 581 620 14 581 30 0 ?688 618 695 7 8 -0 0 688 618 587 15 6
20 31 0 616 581 0 52 693 83 0 688 696 666 0 +.002312447022084375 0 0 -1 0 0 .050
8613004755084 .984807753012208 .1736481776669305 0 1 0 50 696 82 0 662 689 693 0
 +.029 .054925 0 1 0 0 0 1 0 51 666 84 0 657 693 664 0 +.0145 0 0 -1 0 0 .06 0 1
 0 14 657 50 0 ?649 697 698 7 666 +0 0 649 697 587 14 697 55 0 ?657 662 699 7 70
0 +0 0 657 662 587 15 698 54 0 601 657 701 17 601 0 698 601 601 599 702 635 0 70
2 +15 701 51 0 703 657 0 17 703 0 701 703 703 602 633 632 0 0 -18 602 53 0 633 5
85 599 704 ?2 17 633 0 699 633 633 602 703 632 0 703 +15 699 59 0 633 697 705 15
 705 56 0 706 697 0 17 706 0 705 706 706 585 642 634 0 0 -18 585 58 0 642 591 60
2 10 ?2 17 642 0 707 642 642 585 706 634 0 706 +15 707 64 0 642 662 708 14 662 6
0 0 ?697 660 707 7 696 +0 0 697 660 587 15 708 61 0 709 662 0 17 709 0 708 709 7
09 591 595 589 0 0 -17 595 0 663 595 595 591 709 589 0 709 +15 663 69 0 595 660
 710 15 710 66 0 594 660 0 17 594 0 710 594 594 13 588 12 0 0 -29 704 93 0 602 6
85 598 .027 .06 0 29 685 92 0 613 711 704 .00608684743987131 .049725 0 29 598 94
 0 680 704 596 .0229131525601287 .049725 0 29 711 91 0 681 712 685 .026887913409
93965 .0519976009510169 0 18 681 9 0 645 680 677 711 ?2 29 712 90 0 677 651 711
 .02648719254589165 .049725 0 18 677 6 0 675 681 0 712 ?2 29 651 89 0 603 0 712
 0 .058 0 17 645 0 671 645 645 681 713 639 0 713 +15 671 7 0 645 668 714 17 713
 0 665 713 713 681 645 639 0 0 -15 665 71 0 713 579 0 15 714 4 0 678 668 0 17 67
8 0 714 678 678 677 675 583 0 0 -16 583 5 0 ?675 639 0 9 0 0 2 17 702 0 650 702
 702 599 601 635 0 0 -15 650 46 0 702 649 0 54 700 75 0 697 0 674 0 +.027 0 0 1
 0 0 .058 .002 0 0 -1 54 674 76 0 669 700 659 0 +.0145 0 0 1 0 0 .04375 .010319
 0 0 -1 52 659 77 0 668 674 655 0 +.02668755297791565 0 0 1 0 0 .050861300475508
4 .984807753012209 .173648177666927 0 1 0 51 689 81 0 672 658 696 0 +.0042998274
4698984 0 0 -1 0 0 .049725 0 1 0 54 658 80 0 649 656 689 0 +.002 0 0 1 0 0 .058
 .002 0 0 -1 51 656 79 0 618 655 658 0 +2125e-7 0 0 -1 0 0 .05185 0 1 0 17 611 0
 654 611 611 609 715 621 0 715 +17 715 0 619 715 715 609 611 621 0 0 -15 619 36
 0 715 618 0 19 580 73 0 2 0 11 7 S74 20 578 1 0 5 0 0 0 0 0 0 0 0 0 0 0 0 0 0 0
 0 0 0 0 84 20 577 skf_bearing_6311_2_11 0 
