**ABCDEFGHIJKLMNOPQRSTUVWXYZabcdefghijklmnopqrstuvwxyz**************************
**PARASOLID !"#$%&'()*+,-./:;<=>?@[\]^_`{|}~0123456789**************************
**PART1;
FORMAT=text;
GUISE=transmit;
KEY=unicode filename;
FILE=unicode filename;
DATE=unknown;
**PART2;
SCH=SCH_3200152_32001;
USFLD_SIZE=0;
**PART3;
**END_OF_HEADER*****************************************************************
T51 : TRANSMIT FILE created by modeller version 320015217 SCH_1300000_130060 74
 3 1 3 0 2 3 4 12 2 117 5 6 0 0 0 0 1e3 1e-8 0 0 3 1 0 1 1 7 8 9 10 11 12 13 12
 3 69 14 15 0 0 0 0 1e3 1e-8 0 2 4 1 0 1 1 16 17 18 19 20 21 22 12 4 265 23 24 0
 0 0 0 1e3 1e-8 0 3 0 1 0 1 1 25 26 27 28 29 30 31 81 1 23 165 32 4 0 0 0 0 33 7
0 24 0 4 0 0 4 1 20 4 34 34 1 T13 25 104 0 4 0 35 0 0 36 0 54 26 124 0 37 38 0 3
9 +.0095 0 0 1 0 612303176911189e-31 .0325 12303e-9 612303176911189e-31 0 -1 137
 27 264 0 4 40 0 41 +42 43 0 ?29 28 144 0 44 45 0 .0095 -.0222318106756909 .0237
2333114139 19 29 1 0 4 36 0 46 V16 30 71 0 5e-7 47 0 48 0 0 0 4 18 31 72 0 47 0
 49 50 5e-7 4 17 47 0 51 47 47 31 52 30 53 52 +18 49 69 0 54 31 55 56 5e-7 4 29
 50 130 0 31 57 58 .0095 .03193013683252015 .00612504760963944 29 57 129 0 59 60
 50 .0095 -.0294322359847616 .01381279592628208 29 58 131 0 61 50 62 .0095 .0040
41688472200525 -.0322601085034984 18 61 13 0 63 64 65 58 5e-7 4 29 62 132 0 66 5
8 67 .0095 -.00404168847220053 .0322601085034984 18 66 48 0 68 69 59 62 5e-7 4 2
9 67 133 0 70 62 71 .0095 -.0294322359847616 -.01381279592628208 18 70 27 0 72 7
3 74 67 5e-7 4 29 71 134 0 65 67 75 .0095 .02943223598476155 -.0138127959262821
 18 65 9 0 76 61 77 71 5e-7 4 29 75 135 0 73 71 78 .0095 -.02223181067569095 -.0
2372333114139 18 73 30 0 79 80 70 75 5e-7 4 29 78 136 0 80 75 81 .0095 -.0319301
3683252015 .00612504760963945 18 80 34 0 82 83 73 78 5e-7 4 29 81 137 0 83 78 84
 .0095 -.03193013683252015 -.00612504760963944 18 83 37 0 85 44 80 81 5e-7 4 29
 84 138 0 69 81 86 .0095 -.0156922213557318 .02847462089802995 18 69 51 0 87 88
 66 84 5e-7 4 29 86 139 0 89 84 56 .0095 -.01569222135573185 -.02847462089802995
 18 89 20 0 90 74 64 86 5e-7 4 29 56 140 0 49 86 91 .0095 .03193013683252015 -.0
0612504760963944 29 91 141 0 74 56 92 .0095 -.004041688472200535 -.0322601085034
984 18 74 23 0 93 70 89 91 5e-7 4 29 92 142 0 94 91 45 .0095 .00404168847220054
 .0322601085034984 18 94 58 0 95 96 88 92 5e-7 4 29 45 143 0 55 92 28 .0095 .022
2318106756909 .02372333114139 18 55 65 0 97 49 96 45 5e-7 4 17 97 0 98 97 97 55
 99 100 101 99 +18 96 62 0 102 55 94 103 5e-7 4 17 102 0 104 102 102 96 105 106
 107 105 +29 103 126 0 96 108 109 .0095 .0294322359847616 .01381279592628208 29
 108 125 0 88 0 103 .0095 .01569222135573185 .02847462089802995 29 109 127 0 64
 103 60 .0095 .0156922213557318 -.02847462089802995 18 64 16 0 110 89 61 109 5e-
7 4 29 60 128 0 77 109 57 .0095 .0222318106756909 -.02372333114139 18 77 6 0 111
 65 0 60 5e-7 4 17 111 0 112 111 111 77 113 114 115 113 +15 112 80 0 111 116 0 1
7 113 0 117 113 113 77 111 114 40 0 -16 114 5 0 5e-7 111 118 0 0 0 0 4 133 115 2
61 0 111 119 120 0 +120 .0095 .0222318106756909 -.02372333114139 .0095 .02223181
06756909 -.02372333114139 0 1 137 119 259 0 4 121 115 122 +42 123 0 ?137 120 262
 0 4 115 40 124 +125 126 0 ?133 40 263 0 113 120 27 0 +27 .0095 .022231810675690
9 -.02372333114139 .0095 .0222318106756909 -.02372333114139 0 1 141 124 115 124
 124 120 54 125 122 0 116 127 38 128 +.0095 0 0 1 0 612303176911189e-31 .0325 12
303e-9 612303176911189e-31 0 -1 134 126 0 0 0 0 0 0 +129 130 136 129 2 9 2 5 5 F
FF1 131 132 133 135 130 2 0 45 18 131 .752953544173308 229323232949626e-28 .7529
53544173308 .571065842532382 .752917567195992 1.57079687714963 .752881569762087
 2.57109636105339 .752881569762087 3.141592653589795 .752881569762087 3.71209242
6476945 .752917567195992 4.71238843002996 .752953544173308 5.71211598626193 .752
953544173308 6.28318530717961 127 5 132 3 2 2 2 3 128 5 133 0 .25 .5 .75 1 14 11
6 79 0 ?134 135 136 25 125 +0 0 134 135 46 53 127 121 0 137 138 125 139 +.0095 .
0100430523171858 -.0309093367795925 .0061515 0 .951056516295154 .309016994374947
5 1 0 0 54 38 123 0 135 125 26 140 +.0095 0 0 1 0 612303176911189e-31 .0325 1230
3e-9 612303176911189e-31 0 -1 141 128 141 142 142 125 137 141 247 0 4 143 144 14
5 +125 146 0 ?141 142 120 128 128 125 133 143 246 0 110 147 141 0 +141 .0095 .01
56922213557318 -.02847462089802995 .0095 .0156922213557318 -.02847462089802995 0
 1 133 144 248 0 148 141 149 0 +149 .0095 .0156922213557318 -.02847462089802995
 .0095 .0156922213557318 -.02847462089802995 0 1 141 145 143 145 145 141 134 146
 0 0 0 0 0 0 +150 151 136 150 2 9 2 5 5 FFF1 152 153 154 135 151 2 0 45 18 152 .
503683517262609 -714184161890589e-30 .503683517262609 -.571065841627448 .5037194
94239924 -1.57079687713497 .50375549167383 -2.57109636197579 .50375549167383 -3.
141592653589795 .50375549167383 -3.71209242666379 .503719494238249 -4.7123884766
1073 .503683517262609 -5.71211598607641 .503683517262609 -6.28318530717959 127 5
 153 3 2 2 2 3 128 5 154 0 .25 .5 .75 1 17 148 0 155 148 148 64 110 156 144 0 -1
37 149 249 0 4 144 157 158 +127 159 0 ?133 157 251 0 63 149 160 0 +160 .0095 .00
404168847220053 -.0322601085034984 .0095 .00404168847220053 -.0322601085034984 0
 1 141 158 144 158 158 149 134 159 0 0 0 0 0 0 +161 162 136 161 2 17 2 11 5 TTF1
 163 164 165 135 162 2 0 45 34 163 4.71238898038469 1.47802522901585 4.721313779
3332 1.47802522901585 4.72757338024482 1.477424626860706 4.73366903629609 1.4768
39755043302 4.73351897642466 1.47599517541072 4.7333739158174 1.475178733058622
 4.72712616674091 1.47458665473986 4.72104871679946 1.474010715101494 4.71238898
086873 1.47400719227625 4.70390626467364 1.474003741463544 4.69765179472585 1.47
4586654674318 4.69148137907901 1.47516173406978 4.69125898436552 1.4759951753171
9 4.69103823740011 1.476822441502248 4.69720518028925 1.477424683949488 4.703354
74205392 1.47802522901585 4.71238898038469 1.47802522901585 127 11 164 1 2 2 2 2
 2 2 2 2 2 1 128 11 165 -.125 0 .125 .25 .375 .5 .625 .75 .875 1 1.125 17 63 0 1
66 63 63 61 167 168 157 167 +137 160 252 0 4 157 169 170 +38 171 0 ?133 169 253
 0 167 160 172 0 +172 .0095 .004041688472200525 -.0322601085034984 .0095 .004041
688472200525 -.0322601085034984 0 1 141 170 157 170 170 160 134 171 0 0 0 0 0 0
 +173 174 136 173 2 9 2 5 5 FFF1 175 176 177 135 174 2 0 45 18 175 .124635013455
3492 -195540288094286e-28 .1246350134553492 .571065840131738 .1245990364797098 1
.570796830569425 .124563039044128 2.57109636347338 .124563039044128 3.1415926535
89795 .124563039044128 3.7120924266792 .124599036478034 4.71238843004462 .124635
0134553492 5.7121159860575 .1246350134553492 6.28318530717957 127 5 176 3 2 2 2
 3 128 5 177 0 .25 .5 .75 1 17 167 0 178 167 167 61 63 168 169 0 -137 172 254 0
 4 169 179 180 +127 181 0 ?133 179 256 0 76 172 182 0 +182 .0095 .02943223598476
155 -.0138127959262821 .0095 .02943223598476155 -.0138127959262821 0 1 141 180 1
69 180 180 172 134 181 0 0 0 0 0 0 +183 184 136 183 2 17 2 11 5 TTF1 185 186 187
 135 184 2 0 45 34 185 4.71238898038469 -1.47802522901585 4.7034619904246 -1.478
02522901585 4.69720518028925 -1.477424683949486 4.6911089591353 -1.4768395526352
44 4.69125898436552 -1.47599517531719 4.6914040462516 -1.475178732868504 4.69765
179472585 -1.474586654674316 4.7037292451815 -1.474010715052886 4.71238898086873
 -1.47400719227625 4.72087169732197 -1.47400374151096 4.72712616674091 -1.474586
65473986 4.73329658222839 -1.475161734186978 4.73351897642466 -1.47599517541072
 4.73373977525099 -1.47682263784951 4.72757338024482 -1.477424626860706 4.721421
19131566 -1.47802522901585 4.71238898038469 -1.47802522901585 127 11 186 1 2 2 2
 2 2 2 2 2 2 1 128 11 187 -.125 0 .125 .25 .375 .5 .625 .75 .875 1 1.125 17 76 0
 188 76 76 65 189 118 179 189 +137 182 257 0 4 179 121 190 +191 192 0 ?133 121 2
58 0 189 182 119 0 +119 .0095 .02943223598476155 -.0138127959262821 .0095 .02943
223598476155 -.0138127959262821 0 1 141 190 179 190 190 182 54 191 112 0 134 193
 194 195 +.0095 0 0 1 0 612303176911189e-31 .0325 12303e-9 612303176911189e-31 0
 -1 134 192 0 0 0 0 0 0 +196 197 136 196 2 9 2 5 5 FFF1 198 199 200 135 197 2 0
 45 18 198 1.132002047980568 722556769249849e-28 1.132002047980568 -.57106584171
2561 1.132038024957884 -1.57079687714907 1.13207402239179 -2.57109636188798 1.13
207402239179 -3.141592653589795 1.13207402239179 -3.712092426952255 1.1320380249
57882 -4.71238843002996 1.132002047980568 -5.71211598577147 1.132002047980568 -6
.28318530717951 127 5 199 3 2 2 2 3 128 5 200 0 .25 .5 .75 1 14 134 76 0 ?201 11
6 188 25 191 +0 0 201 116 46 53 193 111 0 202 203 191 204 +.0095 .0325 0 .006151
5 0 0 1 1 0 0 53 194 113 0 205 191 206 207 +.0095 -.0262930523171858 .0191030206
995054 .0061515 0 -.587785252292473 -.809016994374947 1 0 0 141 195 208 209 209
 191 137 208 172 0 4 210 211 212 +191 213 0 ?141 209 182 195 195 191 133 210 171
 0 54 214 208 0 +208 .0095 .03193013683252015 -.00612504760963943 .0095 .0319301
3683252015 -.00612504760963943 0 1 133 211 173 0 215 208 216 0 +216 .0095 .03193
013683252015 -.00612504760963944 .0095 .03193013683252015 -.00612504760963944 0
 1 141 212 210 212 212 208 134 213 0 0 0 0 0 0 +217 218 136 217 2 9 2 5 5 FFF1 2
19 220 221 135 218 2 0 45 18 219 1.381272074891266 -3048350898248435e-29 1.38127
2074891266 .571065840800695 1.38123609791395 1.57079687714907 1.381200100480046
 2.571096362800365 1.381200100480046 3.141592653589795 1.381200100480046 3.71209
2426476445 1.38123609791395 4.71238843002939 1.381272074891266 5.71211598625822
 1.381272074891266 6.28318530717956 127 5 220 3 2 2 2 3 128 5 221 0 .25 .5 .75 1
 17 215 0 222 215 215 49 54 48 211 0 -137 216 174 0 4 211 101 223 +193 224 0 ?13
3 101 176 0 97 216 225 0 +225 .0095 .0222318106756909 .02372333114139 .0095 .022
2318106756909 .02372333114139 0 1 141 223 211 223 223 216 134 224 0 0 0 0 0 0 +2
26 227 136 226 2 17 2 11 5 TTF1 228 229 230 135 227 2 0 45 34 228 4.712388980384
69 -1.47802522901585 4.70346199042387 -1.47802522901585 4.69720518028914 -1.4774
24683949476 4.69110895913513 -1.47683955263516 4.69125898436552 -1.4759951753171
6 4.6914040462518 -1.475178732868336 4.69765179472617 -1.474586654674288 4.70372
924518276 -1.474010715052914 4.71238898086932 -1.47400719227625 4.72086949459722
 -1.474003742407 4.72712676653826 -1.474586710159396 4.73329652501589 -1.4751615
24593936 4.73351897640387 -1.475995175317162 4.73373972412184 -1.476822441428742
 4.72757278048024 -1.477424683949476 4.72142321871557 -1.47802522901585 4.712388
98038469 -1.47802522901585 127 11 229 1 2 2 2 2 2 2 2 2 2 1 128 11 230 -.125 0 .
125 .25 .375 .5 .625 .75 .875 1 1.125 137 225 177 0 4 101 231 232 +233 234 0 ?13
3 231 178 0 99 225 235 0 +235 .0095 .02223181067569095 .02372333114139 .0095 .02
223181067569095 .02372333114139 0 1 141 232 101 232 232 225 54 233 106 0 236 237
 238 239 +.0095 0 0 1 0 612303176911189e-31 .0325 12303e-9 612303176911189e-31 0
 -1 134 234 0 0 0 0 0 0 +240 241 136 240 2 9 2 5 5 FFF1 242 243 244 135 241 2 0
 45 18 242 2.388639109416485 -2293232329496265e-29 2.388639109416485 -.571065841
634182 2.3886750863938 -1.57079687713553 2.388711083827705 -2.571096361976355 2.
388711083827705 -3.141592653589795 2.388711083827705 -3.712092428106515 2.388675
086392125 -4.71238847661073 2.388639109416485 -5.71211598460983 2.38863910941648
5 -6.28318530717961 127 5 243 3 2 2 2 3 128 5 244 0 .25 .5 .75 1 14 236 97 0 ?24
5 35 98 25 233 +0 0 245 35 46 54 237 105 0 245 0 233 246 +.0095 0 0 1 0 61230317
6911189e-31 .0325 12303e-9 612303176911189e-31 0 -1 53 238 107 0 247 233 42 248
 +.0095 -.0262930523171858 -.01910302069950535 .0061515 0 .587785252292473 -.809
016994374948 1 0 0 141 239 225 249 249 233 141 249 250 239 239 233 137 250 192 0
 4 251 252 253 +233 254 0 ?133 251 191 0 255 256 250 0 +250 .0095 .0156922213557
318 .02847462089802995 .0095 .0156922213557318 .02847462089802995 0 1 133 252 19
3 0 257 250 258 0 +258 .0095 .0156922213557318 .02847462089802995 .0095 .0156922
213557318 .02847462089802995 0 1 141 253 251 253 253 250 134 254 0 0 0 0 0 0 +25
9 260 136 259 2 9 2 5 5 FFF1 261 262 263 135 260 2 0 45 18 261 2.637909136327185
 714184161890558e-30 2.637909136327185 .571065841613956 2.63787315935029 1.57079
686549457 2.637837161915965 2.57109636198863 2.637837161915965 3.141592653589795
 2.637837161915965 3.71209242649295 2.63787315935029 4.71238844168502 2.63790913
6327185 5.71211598624207 2.637909136327185 6.28318530717959 127 5 262 3 2 2 2 3
 128 5 263 0 .25 .5 .75 1 17 257 0 264 257 257 88 255 265 252 0 -137 258 194 0 4
 252 266 267 +268 269 0 ?133 266 196 0 87 258 270 0 +270 .0095 -.015692221355731
8 .02847462089802995 .0095 -.0156922213557318 .02847462089802995 0 1 141 267 252
 267 267 258 53 268 116 0 271 272 273 274 +.0095 .0100430523171858 .030909336779
5925 .0061515 0 -.951056516295154 .3090169943749475 1 0 0 134 269 0 0 0 0 0 0 +2
75 276 136 275 2 17 2 11 5 TTF1 277 278 279 135 276 2 0 45 34 277 4.712388980384
69 -1.47802522901585 4.70346199051688 -1.47802522901585 4.6972051803764 -1.47742
4683957926 4.69110895925968 -1.47683955265596 4.69125898436032 -1.47599517534057
 4.69140404611903 -1.47517873290616 4.69765179446433 -1.474586654698894 4.703729
24466394 -1.474010715077122 4.71238898038469 -1.47400719227625 4.7208716966188 -
1.474003741487322 4.72712616630505 -1.474586654698894 4.7332965818272 -1.4751617
3410757 4.73351897640906 -1.47599517534057 4.73373972324694 -1.476822441523036 4
.72757278039298 -1.477424683957924 4.72142321862365 -1.47802522901585 4.71238898
038469 -1.47802522901585 127 11 278 1 2 2 2 2 2 2 2 2 2 1 128 11 279 -.125 0 .12
5 .25 .375 .5 .625 .75 .875 1 1.125 14 271 52 0 ?280 281 282 25 268 +0 0 280 281
 46 53 272 115 0 280 206 268 283 +.0095 -.0100430523171858 .0309093367795925 .00
61515 0 -.951056516295154 -.3090169943749475 1 0 0 54 273 117 0 35 268 284 285 +
.0095 0 0 1 0 612303176911189e-31 .0325 12303e-9 612303176911189e-31 0 -1 141 27
4 256 286 286 268 137 256 189 0 4 287 251 288 +268 289 0 ?141 286 258 274 274 26
8 133 287 188 0 290 291 256 0 +256 .0095 .00404168847220053 .0322601085034984 .0
095 .00404168847220053 .0322601085034984 0 1 141 288 287 288 288 256 134 289 0 0
 0 0 0 0 +292 293 136 292 2 17 2 11 5 TTF1 294 295 296 135 293 2 0 45 34 294 4.7
1238898038469 1.47802522901585 4.72131597025222 1.47802522901585 4.7275727803929
8 1.477424683957926 4.73366900150948 1.476839552656006 4.73351897640906 1.475995
17534057 4.73337391465056 1.47517873290609 4.72712616630504 1.474586654698896 4.
72104871610448 1.474010715077122 4.71238898038469 1.47400719227625 4.70390626415
046 1.474003741487322 4.69765179446433 1.474586654698894 4.69148137894236 1.4751
61734107562 4.69125898436031 1.47599517534057 4.69103823752227 1.47682244152298
 4.6972051803764 1.477424683957926 4.70335474214529 1.47802522901585 4.712388980
38469 1.47802522901585 127 11 295 1 2 2 2 2 2 2 2 2 2 1 128 11 296 -.125 0 .125
 .25 .375 .5 .625 .75 .875 1 1.125 17 290 0 282 290 290 94 95 297 287 0 -137 291
 187 0 4 298 287 299 +284 300 0 ?133 298 186 0 95 301 291 0 +291 .0095 .00404168
847220054 .0322601085034984 .0095 .00404168847220054 .0322601085034984 0 1 141 2
99 298 299 299 291 54 284 118 0 201 273 302 303 +.0095 0 0 1 0 612303176911189e-
31 .0325 12303e-9 612303176911189e-31 0 -1 134 300 0 0 0 0 0 0 +304 305 136 304
 2 9 2 5 5 FFF1 306 307 308 135 305 2 0 45 18 306 3.016957640134445 195540288094
286e-28 3.016957640134445 -.571065841697277 3.01699361711134 -1.57079686549457 3
.017029614545665 -2.57109636190526 3.017029614545665 -3.141592653589795 3.017029
614545665 -3.71209242632618 3.01699361711134 -4.71238844168502 3.016957640134445
 -5.71211598640875 3.016957640134445 -6.28318530717957 127 5 307 3 2 2 2 3 128 5
 308 0 .25 .5 .75 1 14 201 73 0 ?202 134 309 25 284 +0 0 202 134 46 54 302 119 0
 310 284 138 311 +.0095 0 0 1 0 612303176911189e-31 .0325 12303e-9 6123031769111
89e-31 0 -1 141 303 291 312 312 284 141 312 313 303 303 284 137 313 202 0 4 314
 315 316 +284 317 0 ?133 314 201 0 68 318 313 0 +313 .0095 -.00404168847220053 .
0322601085034984 .0095 -.00404168847220053 .0322601085034984 0 1 133 315 203 0 3
19 313 320 0 +320 .0095 -.00404168847220053 .0322601085034984 .0095 -.0040416884
7220053 .0322601085034984 0 1 141 316 314 316 316 313 134 317 0 0 0 0 0 0 +321 3
22 136 321 2 9 2 5 5 FFF1 323 324 325 135 322 2 0 45 18 323 3.266227667045145 19
5540288094286e-28 3.266227667045145 .571065841696247 3.266191690068245 1.5707968
6549344 3.26615569263392 2.571096361904035 3.26615569263392 3.141592653589795 3.
26615569263392 3.71209242632724 3.266191690068245 4.71238844168615 3.26622766704
5145 5.71211598640994 3.266227667045145 6.28318530717961 127 5 324 3 2 2 2 3 128
 5 325 0 .25 .5 .75 1 17 319 0 326 319 319 66 68 327 315 0 -137 320 204 0 4 315
 328 329 +272 330 0 ?133 328 206 0 331 320 332 0 +332 .0095 -.02943223598476155
 .0138127959262821 .0095 -.02943223598476155 .0138127959262821 0 1 141 329 315 3
29 329 320 134 330 0 0 0 0 0 0 +333 334 136 333 2 17 2 11 5 TTF1 335 336 337 135
 334 2 0 45 34 335 4.71238898038469 -1.47802522901585 4.70346199051807 -1.478025
22901585 4.69720518037639 -1.477424683957926 4.69110895926003 -1.476839552656106
 4.69125898436031 -1.475995175340572 4.69140404611865 -1.475178732906162 4.69765
179446433 -1.474586654698896 4.70372924466434 -1.474010715077122 4.7123889803846
9 -1.47400719227625 4.72087169661995 -1.474003741487322 4.72712616630504 -1.4745
86654698896 4.73329658182668 -1.475161734107632 4.73351897640907 -1.475995175340
572 4.73373972324743 -1.476822441522846 4.72757278039298 -1.477424683957926 4.72
142321862515 -1.47802522901585 4.71238898038469 -1.47802522901585 127 11 336 1 2
 2 2 2 2 2 2 2 2 1 128 11 337 -.125 0 .125 .25 .375 .5 .625 .75 .875 1 1.125 17
 331 0 338 331 331 59 339 340 328 339 +137 332 207 0 4 328 341 342 +203 343 0 ?1
33 341 208 0 339 332 344 0 +344 .0095 -.02943223598476155 .01381279592628208 .00
95 -.02943223598476155 .01381279592628208 0 1 141 342 328 342 342 332 54 203 110
 0 345 346 193 347 +.0095 0 0 1 0 612303176911189e-31 .0325 12303e-9 61230317691
1189e-31 0 -1 134 343 0 0 0 0 0 0 +348 349 136 348 2 9 2 5 5 FFF1 350 351 352 13
5 349 2 0 45 18 350 4.27359470157036 -72255676924985e-27 4.27359470157036 -.5710
65843438382 4.27363067854726 -1.570796865495135 4.27366667598158 -2.571096360164
295 4.27366667598158 -3.141592653589795 4.27366667598158 -3.712092430117275 4.27
3630678547255 -4.71238844168445 4.27359470157036 -5.71211598256933 4.27359470157
036 -6.28318530717966 127 5 351 3 2 2 2 3 128 5 352 0 .25 .5 .75 1 14 345 91 0 ?
37 245 338 25 203 +0 0 37 245 46 53 346 109 0 353 42 203 354 +.0095 -.0100430523
171858 -.0309093367795925 .0061515 0 .951056516295154 -.3090169943749475 1 0 0 1
41 347 332 355 355 203 141 355 356 347 347 203 137 356 222 0 4 357 358 359 +203
 360 0 ?133 357 221 0 82 361 356 0 +356 .0095 -.03193013683252015 .0061250476096
3944 .0095 -.03193013683252015 .00612504760963944 0 1 133 358 223 0 362 356 363
 0 +363 .0095 -.03193013683252015 .00612504760963945 .0095 -.03193013683252015 .
00612504760963945 0 1 141 359 357 359 359 356 134 360 0 0 0 0 0 0 +364 365 136 3
64 2 9 2 5 5 FFF1 366 367 368 135 365 2 0 45 18 366 4.52286472848106 30483508982
48435e-29 4.52286472848106 .571065839872451 4.52282875150416 1.57079686549344 4.
52279275406984 2.57109636372887 4.52279275406984 3.141592653589795 4.52279275406
984 3.71209242641061 4.52282875150416 4.71238844168615 4.52286472848106 5.712115
98632662 4.52286472848106 6.28318530717962 127 5 367 3 2 2 2 3 128 5 368 0 .25 .
5 .75 1 17 362 0 369 362 362 80 82 370 358 0 -137 363 224 0 4 358 371 372 +206 3
73 0 ?133 371 226 0 79 363 374 0 +374 .0095 -.02223181067569095 -.02372333114138
995 .0095 -.02223181067569095 -.02372333114138995 0 1 141 372 358 372 372 363 53
 206 114 0 375 194 272 376 +.0095 -.0325 3979970649922725e-33 .0061515 0 -122460
6353822376e-31 -1 1 0 0 134 373 0 0 0 0 0 0 +377 378 136 377 2 17 2 11 5 TTF1 37
9 380 381 135 378 2 0 45 34 379 4.71238898038469 -1.47802522901585 4.70346199051
78 -1.47802522901585 4.6972051803764 -1.477424683957926 4.69110895926004 -1.4768
3955265608 4.69125898436032 -1.47599517534057 4.69140404611864 -1.47517873290629
6 4.69765179446433 -1.474586654698896 4.70372924466339 -1.47401071507708 4.71238
898038469 -1.47400719227625 4.72087169662096 -1.474003741487362 4.72712616630504
 -1.474586654698896 4.7332965818269 -1.475161734107706 4.73351897640907 -1.47599
517534057 4.73373972324726 -1.476822441522942 4.72757278039298 -1.47742468395792
6 4.72142321862431 -1.47802522901585 4.71238898038469 -1.47802522901585 127 11 3
80 1 2 2 2 2 2 2 2 2 2 1 128 11 381 -.125 0 .125 .25 .375 .5 .625 .75 .875 1 1.1
25 14 375 31 0 ?247 205 382 25 206 +0 0 247 205 46 141 376 361 383 383 206 137 3
61 219 0 4 384 357 385 +206 386 0 ?141 383 363 376 376 206 133 384 218 0 387 388
 361 0 +361 .0095 -.03193013683252015 -.00612504760963944 .0095 -.03193013683252
015 -.00612504760963944 0 1 141 385 384 385 385 361 134 386 0 0 0 0 0 0 +389 390
 136 389 2 17 2 11 5 TTF1 391 392 393 135 390 2 0 45 34 391 4.71238898038469 1.4
7802522901585 4.72131597025209 1.47802522901585 4.72757278039298 1.4774246839579
24 4.73366900150914 1.476839552656052 4.73351897640907 1.47599517534057 4.733373
91465093 1.475178732906192 4.72712616630504 1.474586654698894 4.72104871610405 1
.474010715077014 4.71238898038469 1.474007192276252 4.70390626414756 1.474003741
48743 4.69765179446433 1.474586654698896 4.69148137894209 1.475161734107754 4.69
125898436032 1.47599517534057 4.69103823752251 1.47682244152296 4.6972051803764
 1.477424683957926 4.70335474214484 1.47802522901585 4.71238898038469 1.47802522
901585 127 11 392 1 2 2 2 2 2 2 2 2 2 1 128 11 393 -.125 0 .125 .25 .375 .5 .625
 .75 .875 1 1.125 17 387 0 382 387 387 83 85 394 384 0 -137 388 217 0 4 395 384
 396 +26 397 0 ?133 395 216 0 85 398 388 0 +388 .0095 -.03193013683252015 -.0061
2504760963943 .0095 -.03193013683252015 -.00612504760963943 0 1 141 396 395 396
 396 388 134 397 0 0 0 0 0 0 +399 400 136 399 2 9 2 5 5 FFF1 401 402 403 135 400
 2 0 45 18 401 4.90191323228832 -304835089824843e-28 4.90191323228832 -.57106584
3603396 4.90194920926522 -1.57079686549344 4.90198520669954 -2.5710963599958 4.9
0198520669954 -3.141592653589795 4.90198520669954 -3.71209242641061 4.9019492092
6522 -4.71238844168615 4.90191323228832 -5.71211598632662 4.90191323228832 -6.28
318530717962 127 5 402 3 2 2 2 3 128 5 403 0 .25 .5 .75 1 17 85 0 404 85 85 83 3
87 394 395 387 +137 398 214 0 4 405 395 406 +194 407 0 ?133 405 213 0 408 409 39
8 0 +398 .0095 -.0222318106756909 .02372333114139 .0095 -.0222318106756909 .0237
2333114139 0 1 141 406 405 406 406 398 134 407 0 0 0 0 0 0 +410 411 136 410 2 17
 2 11 5 TTF1 412 413 414 135 411 2 0 45 34 412 4.71238898038469 -1.4780252290158
5 4.70346199051704 -1.47802522901585 4.6972051803764 -1.477424683957924 4.691108
95925994 -1.476839552656 4.69125898436031 -1.47599517534057 4.69140404611874 -1.
47517873290625 4.69765179446434 -1.474586654698894 4.70372924466261 -1.474010715
077188 4.71238898038469 -1.474007192276248 4.72087169661896 -1.474003741487252 4
.72712616630504 -1.474586654698894 4.73329658182703 -1.47516173410764 4.73351897
640906 -1.47599517534057 4.7337397232471 -1.476822441522944 4.72757278039298 -1.
477424683957926 4.72142321862446 -1.47802522901585 4.71238898038469 -1.478025229
01585 127 11 413 1 2 2 2 2 2 2 2 2 2 1 128 11 414 -.125 0 .125 .25 .375 .5 .625
 .75 .875 1 1.125 17 408 0 415 408 408 44 416 417 405 0 -137 409 212 0 4 418 405
 419 +237 420 0 ?133 418 211 0 416 344 409 0 +409 .0095 -.0222318106756909 .0237
2333114139 .0095 -.0222318106756909 .02372333114139 0 1 141 419 418 419 419 409
 134 420 0 0 0 0 0 0 +421 422 136 421 2 9 2 5 5 FFF1 423 424 425 135 422 2 0 45
 18 423 3.8945461977631 -229323232949626e-28 3.8945461977631 .571065841531134 3.
894510220786205 1.570796865495135 3.89447422335188 2.571096362072625 3.894474223
35188 3.141592653589795 3.89447422335188 3.712092426492415 3.894510220786205 4.7
1238844168445 3.8945461977631 5.71211598624148 3.8945461977631 6.28318530717956
 127 5 424 3 2 2 2 3 128 5 425 0 .25 .5 .75 1 17 416 0 426 416 416 44 408 417 41
8 408 +137 344 209 0 4 341 418 427 +194 428 0 ?141 427 341 427 427 344 134 428 0
 0 0 0 0 0 +429 430 136 429 2 17 2 11 5 TTF1 431 432 433 135 430 2 0 45 34 431 4
.71238898038469 1.47802522901585 4.72131597025293 1.47802522901585 4.72757278039
298 1.477424683957924 4.73366900150947 1.47683955265594 4.73351897640906 1.47599
517534057 4.73337391465056 1.475178732906124 4.72712616630504 1.474586654698894
 4.72104871610382 1.474010715077026 4.71238898038469 1.47400719227625 4.70390626
414879 1.474003741487416 4.69765179446433 1.474586654698894 4.69148137894212 1.4
7516173410765 4.69125898436032 1.47599517534057 4.69103823752248 1.4768224415230
44 4.69720518037639 1.477424683957924 4.70335474214576 1.47802522901585 4.712388
98038469 1.47802522901585 127 11 432 1 2 2 2 2 2 2 2 2 2 1 128 11 433 -.125 0 .1
25 .25 .375 .5 .625 .75 .875 1 1.125 15 426 95 0 416 245 0 18 44 41 0 416 59 83
 28 5e-7 4 16 417 40 0 5e-7 416 340 394 0 0 0 4 16 340 43 0 5e-7 331 327 417 0 0
 0 4 16 394 36 0 5e-7 85 417 370 0 0 0 4 16 370 33 0 5e-7 82 394 434 0 0 0 4 17
 82 0 435 82 82 80 362 370 357 362 +16 434 29 0 5e-7 79 370 436 0 0 0 4 17 79 0
 437 79 79 73 438 434 371 438 +16 436 26 0 5e-7 72 434 439 0 0 0 4 17 72 0 440 7
2 72 70 441 436 442 441 +16 439 22 0 5e-7 93 436 443 0 0 0 4 17 93 0 444 93 93 7
4 445 439 446 445 +16 443 19 0 5e-7 90 439 156 0 0 0 4 17 90 0 447 90 90 89 448
 443 449 448 +16 156 15 0 5e-7 110 443 168 0 0 0 4 17 110 0 136 110 110 64 148 1
56 143 148 +16 168 12 0 5e-7 63 156 118 0 0 0 4 16 118 8 0 5e-7 76 168 114 0 0 0
 4 15 136 81 0 110 116 112 15 447 86 0 90 310 0 17 448 0 450 448 448 89 90 443 4
51 0 -133 449 241 0 90 452 453 0 +453 .0095 -.01569222135573185 -.02847462089802
995 .0095 -.01569222135573185 -.02847462089802995 0 1 137 452 239 0 4 454 449 45
5 +346 456 0 ?137 453 242 0 4 449 451 457 +302 458 0 ?133 451 243 0 448 453 147
 0 +147 .0095 -.01569222135573185 -.02847462089802995 .0095 -.01569222135573185
 -.02847462089802995 0 1 141 457 449 457 457 453 134 458 0 0 0 0 0 0 +459 460 13
6 459 2 9 2 5 5 FFF1 461 462 463 135 460 2 0 45 18 461 5.77950178991698 -7141841
61890155e-30 5.77950178991698 .571065839706807 5.77946581294008 1.57079686549457
 5.77942981550576 2.571096363896865 5.77942981550576 3.141592653589795 5.7794298
1550576 3.712092426492385 5.77946581294008 4.71238844168445 5.77950178991698 5.7
1211598624151 5.77950178991698 6.28318530717959 127 5 462 3 2 2 2 3 128 5 463 0
 .25 .5 .75 1 137 147 244 0 4 451 143 464 +346 465 0 ?141 464 451 464 464 147 13
4 465 0 0 0 0 0 0 +466 467 136 466 2 17 2 11 5 TTF1 468 469 470 135 467 2 0 45 3
4 468 4.7123889803847 -1.47802522901585 4.70346199051794 -1.47802522901585 4.697
2051803764 -1.477424683957926 4.69110895926006 -1.476839552656094 4.691258984360
32 -1.47599517534057 4.69140404611864 -1.475178732906184 4.69765179446435 -1.474
586654698894 4.70372924466439 -1.474010715077094 4.7123889803847 -1.474007192276
25 4.72087169662043 -1.47400374148735 4.72712616630505 -1.474586654698896 4.7332
9658182674 -1.475161734107654 4.73351897640907 -1.47599517534057 4.7337397232474
1 -1.476822441522926 4.72757278039299 -1.477424683957924 4.72142321862434 -1.478
02522901585 4.7123889803847 -1.47802522901585 127 11 469 1 2 2 2 2 2 2 2 2 2 1 1
28 11 470 -.125 0 .125 .25 .375 .5 .625 .75 .875 1 1.125 133 454 238 0 445 471 4
52 0 +452 .0095 -.004041688472200535 -.0322601085034984 .0095 -.0040416884722005
35 -.0322601085034984 0 1 141 455 454 455 455 452 134 456 0 0 0 0 0 0 +472 473 1
36 472 2 17 2 11 5 TTF1 474 475 476 135 473 2 0 45 34 474 4.7123889803847 1.4780
2522901585 4.72131597025151 1.47802522901585 4.72757278039299 1.477424683957926
 4.73366900150919 1.476839552656102 4.73351897640907 1.47599517534057 4.73337391
465088 1.47517873290611 4.72712616630505 1.474586654698896 4.72104871610435 1.47
4010715077122 4.7123889803847 1.47400719227625 4.70390626414982 1.47400374148732
2 4.69765179446435 1.474586654698896 4.69148137894255 1.47516173410761 4.6912589
8436032 1.47599517534057 4.69103823752207 1.47682244152303 4.69720518037641 1.47
7424683957924 4.70335474214602 1.47802522901585 4.7123889803847 1.47802522901585
 127 11 475 1 2 2 2 2 2 2 2 2 2 1 128 11 476 -.125 0 .125 .25 .375 .5 .625 .75 .
875 1 1.125 17 445 0 477 445 445 74 93 439 454 0 -137 471 237 0 4 446 454 478 +3
8 479 0 ?133 446 236 0 93 480 471 0 +471 .0095 -.004041688472200545 -.0322601085
034984 .0095 -.004041688472200545 -.0322601085034984 0 1 141 478 446 478 478 471
 134 479 0 0 0 0 0 0 +481 482 136 481 2 9 2 5 5 FFF1 483 484 485 135 482 2 0 45
 18 483 6.15855029372424 -195540288094286e-28 6.15855029372424 -.571065843437785
 6.15858627070113 -1.57079686549457 6.15862226813546 -2.571096360163765 6.158622
26813546 -3.141592653589795 6.15862226813546 -3.71209242632668 6.15858627070113
 -4.71238844168558 6.15855029372424 -5.71211598640937 6.15855029372424 -6.283185
30717961 127 5 484 3 2 2 2 3 128 5 485 0 .25 .5 .75 1 137 480 234 0 4 486 446 48
7 +238 488 0 ?133 486 233 0 441 489 480 0 +480 .0095 -.02943223598476155 -.01381
279592628206 .0095 -.02943223598476155 -.01381279592628206 0 1 141 487 486 487 4
87 480 134 488 0 0 0 0 0 0 +490 491 136 490 2 17 2 11 5 TTF1 492 493 494 135 491
 2 0 45 34 492 4.71238898038469 -1.47802522901585 4.70346199051705 -1.4780252290
1585 4.6972051803764 -1.477424683957924 4.6911089592601 -1.476839552656014 4.691
25898436032 -1.47599517534057 4.69140404611861 -1.4751787329062 4.69765179446433
 -1.474586654698894 4.70372924466422 -1.474010715077094 4.71238898038469 -1.4740
0719227625 4.72087169662053 -1.474003741487348 4.72712616630506 -1.4745866546988
94 4.73329658182674 -1.47516173410766 4.73351897640907 -1.47599517534057 4.73373
972324742 -1.476822441522964 4.72757278039298 -1.477424683957924 4.7214232186239
2 -1.47802522901585 4.71238898038469 -1.47802522901585 127 11 493 1 2 2 2 2 2 2
 2 2 2 1 128 11 494 -.125 0 .125 .25 .375 .5 .625 .75 .875 1 1.125 17 441 0 495
 441 441 70 72 436 486 0 -137 489 232 0 4 442 486 496 +26 497 0 ?133 442 231 0 7
2 498 489 0 +489 .0095 -.0294322359847616 -.01381279592628208 .0095 -.0294322359
847616 -.01381279592628208 0 1 141 496 442 496 496 489 134 497 0 0 0 0 0 0 +499
 500 136 499 2 9 2 5 5 FFF1 501 502 503 135 500 2 0 45 18 501 5.15118325919902 7
2255676924985e-27 5.15118325919902 .571065839873048 5.15114728222212 1.570796865
494005 5.1511112847878 2.5710963637294 5.1511112847878 3.141592653589795 5.15111
12847878 3.712092426326615 5.15114728222212 4.71238844168558 5.15118325919902 5.
71211598640944 5.15118325919902 6.28318530717966 127 5 502 3 2 2 2 3 128 5 503 0
 .25 .5 .75 1 137 498 229 0 4 504 442 505 +238 506 0 ?133 504 228 0 438 374 498
 0 +498 .0095 -.0222318106756909 -.02372333114139 .0095 -.0222318106756909 -.023
72333114139 0 1 141 505 504 505 505 498 134 506 0 0 0 0 0 0 +507 508 136 507 2 1
7 2 11 5 TTF1 509 510 511 135 508 2 0 45 34 509 4.71238898038469 1.4780252290158
5 4.72131597025236 1.47802522901585 4.72757278039298 1.477424683957926 4.7336690
0150928 1.476839552656012 4.73351897640907 1.47599517534057 4.73337391465079 1.4
75178732906222 4.72712616630506 1.474586654698894 4.72104871610482 1.47401071507
704 4.71238898038469 1.474007192276252 4.70390626414914 1.474003741487404 4.6976
5179446433 1.474586654698894 4.69148137894237 1.475161734107604 4.69125898436032
 1.47599517534057 4.69103823752228 1.47682244152292 4.6972051803764 1.4774246839
57926 4.70335474214468 1.47802522901585 4.71238898038469 1.47802522901585 127 11
 510 1 2 2 2 2 2 2 2 2 2 1 128 11 511 -.125 0 .125 .25 .375 .5 .625 .75 .875 1 1
.125 17 438 0 512 438 438 73 79 434 504 0 -137 374 227 0 4 371 504 513 +302 514
 0 ?141 513 371 513 513 374 134 514 0 0 0 0 0 0 +515 516 136 515 2 9 2 5 5 FFF1
 517 518 519 135 516 2 0 45 18 517 5.53023176300628 229323232949497e-28 5.530231
76300628 -.571065839706775 5.53026773998317 -1.57079686549457 5.5303037374175 -2
.571096363921575 5.5303037374175 -3.141592653589795 5.5303037374175 -3.712092426
32671 5.53026773998318 -4.71238844168558 5.53023176300628 -5.71211598643402 5.53
023176300628 -6.28318530717956 127 5 518 3 2 2 2 3 128 5 519 0 .25 .5 .75 1 15 5
12 28 0 438 247 495 14 247 24 0 ?353 375 512 25 238 +0 0 353 375 46 15 495 25 0
 441 247 0 14 353 17 0 ?137 247 477 25 346 +0 0 137 247 46 13 46 2 0 0 0 0 0 0 2
9 35 14 35 100 0 ?236 0 51 25 273 +0 0 236 0 46 15 51 102 0 47 35 104 15 104 101
 0 102 35 0 14 137 10 0 ?520 353 155 25 127 +0 0 520 353 46 15 477 21 0 445 353
 450 15 450 18 0 448 353 0 14 520 3 0 ?0 137 521 25 42 +0 0 0 137 46 15 155 14 0
 148 137 178 15 178 11 0 167 137 0 15 521 7 0 189 520 117 53 42 108 0 520 238 34
6 522 +.0095 .0262930523171858 -.0191030206995054 .0061515 0 .587785252292473 .8
09016994374947 1 0 0 141 522 119 523 523 42 141 523 27 522 522 42 17 189 0 521 1
89 189 65 76 118 121 0 -15 117 4 0 113 520 0 14 310 85 0 ?135 37 437 25 302 +0 0
 135 37 46 14 135 82 0 ?116 310 444 25 38 +0 0 116 310 46 14 37 88 0 ?310 345 40
4 25 26 +0 0 310 345 46 15 437 87 0 79 310 447 15 404 90 0 85 37 440 15 440 89 0
 72 37 0 15 444 84 0 93 135 166 15 166 83 0 63 135 0 15 435 92 0 82 345 0 16 327
 47 0 5e-7 68 524 340 0 0 0 4 17 68 0 525 68 68 66 319 327 314 319 +16 524 50 0
 5e-7 87 265 327 0 0 0 4 17 87 0 526 87 87 69 527 524 266 527 +16 265 54 0 5e-7
 255 297 524 0 0 0 4 17 255 0 528 255 255 88 257 265 251 257 +16 297 57 0 5e-7 9
5 106 265 0 0 0 4 17 95 0 309 95 95 94 290 297 298 290 +16 106 61 0 5e-7 102 100
 297 0 0 0 4 16 100 64 0 5e-7 97 48 106 0 0 0 4 16 48 68 0 5e-7 54 30 100 0 0 0
 4 17 54 0 529 54 54 49 215 48 210 215 +15 529 77 0 54 134 0 15 309 75 0 95 201
 525 15 525 74 0 68 201 0 15 528 98 0 255 236 0 18 88 55 0 255 94 69 108 5e-7 4
 15 526 96 0 87 245 426 17 527 0 530 527 527 69 87 524 531 0 -15 530 49 0 527 28
0 326 133 531 198 0 527 270 318 0 +318 .0095 -.0156922213557318 .028474620898029
95 .0095 -.0156922213557318 .02847462089802995 0 1 137 270 197 0 4 266 531 532 +
237 533 0 ?137 318 199 0 4 531 314 534 +272 535 0 ?141 534 531 534 534 318 134 5
35 0 0 0 0 0 0 +536 537 136 536 2 17 2 11 5 TTF1 538 539 540 135 537 2 0 45 34 5
38 4.71238898038469 1.47802522901585 4.72131597025163 1.47802522901585 4.7275727
8039298 1.477424683957926 4.73366900150948 1.476839552656062 4.73351897640906 1.
47599517534057 4.73337391465058 1.475178732906182 4.72712616630505 1.47458665469
8896 4.72104871610469 1.474010715077052 4.71238898038468 1.47400719227625 4.7039
0626414774 1.47400374148739 4.69765179446433 1.474586654698896 4.69148137894206
 1.47516173410778 4.69125898436031 1.475995175340572 4.69103823752248 1.47682244
1523086 4.6972051803764 1.477424683957926 4.70335474214617 1.47802522901585 4.71
238898038469 1.47802522901585 127 11 539 1 2 2 2 2 2 2 2 2 2 1 128 11 540 -.125
 0 .125 .25 .375 .5 .625 .75 .875 1 1.125 141 532 266 532 532 270 134 533 0 0 0
 0 0 0 +541 542 136 541 2 9 2 5 5 FFF1 543 544 545 135 542 2 0 45 18 543 3.64527
61708524 714184161890589e-30 3.6452761708524 -.571065839872418 3.6453121478293 -
1.57079686549344 3.645348145263625 -2.5710963637289 3.645348145263625 -3.1415926
53589795 3.645348145263625 -3.712092426410645 3.6453121478293 -4.71238844168615
 3.6452761708524 -5.71211598632659 3.6452761708524 -6.28318530717959 127 5 544 3
 2 2 2 3 128 5 545 0 .25 .5 .75 1 14 280 45 0 ?205 271 530 25 272 +0 0 205 271 4
6 15 326 46 0 319 280 0 14 205 38 0 ?375 280 546 25 194 +0 0 375 280 46 15 546 4
2 0 339 205 415 17 339 0 546 339 339 59 331 340 341 0 -15 415 39 0 408 205 0 18
 59 44 0 331 66 44 57 5e-7 4 14 245 94 0 ?345 236 526 25 237 +0 0 345 236 46 15
 382 35 0 387 375 369 15 369 32 0 362 375 0 141 354 452 547 547 346 141 547 147
 354 354 346 15 338 93 0 331 345 435 53 138 120 0 281 302 127 548 +.0095 .026293
0523171858 .0191030206995054 .0061515 0 -.587785252292473 .809016994374948 1 0 0
 141 311 374 549 549 302 141 549 453 311 311 302 14 281 59 0 ?271 202 550 25 138
 +0 0 271 202 46 141 548 235 551 551 138 137 235 179 0 4 231 107 552 +138 553 0
 ?141 551 301 548 548 138 137 301 184 0 4 554 298 555 +138 556 0 ?133 554 183 0
 105 557 301 0 +301 .0095 .0294322359847616 .01381279592628208 .0095 .0294322359
847616 .01381279592628208 0 1 141 555 554 555 555 301 134 556 0 0 0 0 0 0 +558 5
59 136 558 2 17 2 11 5 TTF1 560 561 562 135 559 2 0 45 34 560 4.71238898038469 -
1.47802522901585 4.703461990424 -1.47802522901585 4.69720518028924 -1.4774246839
49488 4.6911089591353 -1.476839552635192 4.69125898436551 -1.475995175317188 4.6
9140404625162 -1.475178732868354 4.69765179472585 -1.47458665467432 4.7037292451
8263 -1.474010715052926 4.71238898086873 -1.47400719227625 4.72087169732079 -1.4
7400374151092 4.72712616674089 -1.474586654739858 4.73329658222832 -1.4751617341
86904 4.73351897642466 -1.47599517541072 4.73373977525106 -1.476822637849584 4.7
2757338024481 -1.477424626860706 4.72142119131478 -1.47802522901585 4.7123889803
8469 -1.47802522901585 127 11 561 1 2 2 2 2 2 2 2 2 2 1 128 11 562 -.125 0 .125
 .25 .375 .5 .625 .75 .875 1 1.125 17 105 0 563 105 105 96 102 106 554 0 -137 55
7 182 0 4 107 554 564 +273 565 0 ?133 107 181 0 102 235 557 0 +557 .0095 .029432
23598476155 .01381279592628208 .0095 .02943223598476155 .01381279592628208 0 1 1
41 564 107 564 564 557 134 565 0 0 0 0 0 0 +566 567 136 566 2 9 2 5 5 FFF1 568 5
69 570 135 567 2 0 45 18 568 2.009590605609225 -72255676924985e-27 2.00959060560
9225 .571065841662955 2.009554628633585 1.57079683056886 2.009518631198005 2.571
096361934765 2.009518631198005 3.141592653589795 2.009518631198005 3.71209242647
2565 2.00955462863191 4.71238843004405 2.009590605609225 5.7121159862544 2.00959
0605609225 6.28318530717951 127 5 569 3 2 2 2 3 128 5 570 0 .25 .5 .75 1 15 563
 60 0 105 281 0 141 552 231 552 552 235 134 553 0 0 0 0 0 0 +571 572 136 571 2 1
7 2 11 5 TTF1 573 574 575 135 572 2 0 45 34 573 4.71238898038469 1.4780252290158
5 4.72131377933299 1.47802522901585 4.72757338024481 1.477424626860706 4.7336690
3629573 1.476839755043354 4.73351897642466 1.47599517541072 4.73337391581778 1.4
75178733058768 4.7271261667409 1.474586654739858 4.72104871679857 1.474010715101
306 4.71238898086873 1.474007192276252 4.70390626467124 1.474003741463734 4.6976
5179472585 1.474586654674318 4.69148137907881 1.47516173406983 4.69125898436551
 1.475995175317188 4.6910382374003 1.47682244150221 4.69720518028925 1.477424683
94949 4.70335474205333 1.47802522901585 4.71238898038469 1.47802522901585 127 11
 574 1 2 2 2 2 2 2 2 2 2 1 128 11 575 -.125 0 .125 .25 .375 .5 .625 .75 .875 1 1
.125 14 202 66 0 ?281 201 576 25 193 +0 0 281 201 46 15 550 63 0 99 281 563 17 9
9 0 550 99 99 55 97 100 231 0 -15 576 70 0 52 202 222 17 52 0 576 52 52 31 47 30
 577 0 -15 222 67 0 215 202 0 133 577 168 0 52 578 214 0 +214 .0095 .03193013683
252015 .00612504760963944 .0095 .03193013683252015 .00612504760963944 0 1 137 57
8 167 0 4 53 577 579 +273 580 0 ?137 214 169 0 4 577 210 581 +193 582 0 ?141 581
 577 581 581 214 134 582 0 0 0 0 0 0 +583 584 136 583 2 17 2 11 5 TTF1 585 586 5
87 135 584 2 0 45 34 585 4.71238898038469 1.47802522901585 4.72131597034567 1.47
802522901585 4.72757278048024 1.477424683949476 4.73366900163426 1.4768395526351
44 4.73351897640386 1.47599517531716 4.7333738784138 1.475178529667824 4.7271267
6653826 1.474586710159398 4.72104668446 1.474010714201836 4.71238898086931 1.474
00719227625 4.70390626391079 1.474003741534656 4.69765179472617 1.47458665467428
6 4.69148137907959 1.47516173406971 4.69125898436552 1.47599517531716 4.69103823
739957 1.476822441502146 4.69720518028914 1.477424683949476 4.70335474205343 1.4
7802522901585 4.71238898038469 1.47802522901585 127 11 586 1 2 2 2 2 2 2 2 2 2 1
 128 11 587 -.125 0 .125 .25 .375 .5 .625 .75 .875 1 1.125 133 53 166 0 47 0 578
 0 +578 .0095 .03193013683252015 .00612504760963944 .0095 .03193013683252015 .00
612504760963944 0 1 141 579 53 579 579 578 134 580 0 0 0 0 0 0 +588 589 136 588
 2 9 2 5 5 FFF1 590 591 592 135 589 2 0 45 18 590 1.760320578698525 304835089824
8435e-29 1.760320578698525 -.571065841713157 1.76035655567584 -1.57079687714963
 1.76039255310975 -2.57109636188851 1.76039255310975 -3.141592653589795 1.760392
55310975 -3.71209242604595 1.76035655567584 -4.71238843002996 1.760320578698525
 -5.71211598668959 1.760320578698525 -6.28318530717956 127 5 591 3 2 2 2 3 128 5
 592 0 .25 .5 .75 1 15 282 56 0 290 271 264 15 264 53 0 257 271 0 141 285 578 59
3 593 273 141 593 557 285 285 273 141 283 318 594 594 272 141 594 320 283 283 27
2 141 248 498 595 595 238 141 595 480 248 248 238 141 246 270 596 596 237 141 59
6 409 246 246 237 15 98 99 0 97 236 528 141 207 344 597 597 194 141 597 398 207
 207 194 141 204 214 598 598 193 141 598 216 204 204 193 15 188 78 0 76 134 529
 141 140 471 599 599 38 141 599 160 140 140 38 141 139 149 600 600 127 141 600 1
72 139 139 127 141 122 121 122 122 119 134 123 0 0 0 0 0 0 +601 602 136 601 2 17
 2 11 5 TTF1 603 604 605 135 602 2 0 45 34 603 4.71238898038469 1.47802522901585
 4.72131597034414 1.47802522901585 4.72757278048025 1.477424683949476 4.73366900
163406 1.47683955263531 4.73351897640387 1.47599517531716 4.73337387841405 1.475
178529667902 4.72712676653826 1.474586710159398 4.72104668446173 1.4740107142019
46 4.71238898086931 1.47400719227625 4.70390626391214 1.47400374153455 4.6976517
9472617 1.474586654674288 4.69148137907906 1.47516173406974 4.69125898436552 1.4
7599517531716 4.6910382374001 1.476822441502146 4.69720518028913 1.4774246839494
8 4.70335474205285 1.47802522901585 4.71238898038469 1.47802522901585 127 11 604
 1 2 2 2 2 2 2 2 2 2 1 128 11 605 -.125 0 .125 .25 .375 .5 .625 .75 .875 1 1.125
 19 36 103 0 4 0 29 25 S141 41 40 41 41 27 134 43 0 0 0 0 0 0 +606 607 136 606 2
 17 2 11 5 TTF1 608 609 610 135 607 2 0 45 34 608 4.71238898038469 -1.4780252290
1585 4.70346199042514 -1.47802522901585 4.69720518028914 -1.47742468394948 4.691
10895913518 -1.476839552635288 4.69125898436552 -1.47599517531716 4.691404046251
73 -1.47517873286841 4.69765179472617 -1.47458665467429 4.703729245183 -1.474010
715052832 4.71238898086931 -1.47400719227625 4.72086949459756 -1.47400374240708
 4.72712676653826 -1.474586710159396 4.73329652501574 -1.47516152459387 4.733518
97640387 -1.47599517531716 4.73373972412199 -1.476822441428754 4.72757278048025
 -1.477424683949478 4.72142321871532 -1.47802522901585 4.71238898038469 -1.47802
522901585 127 11 609 1 2 2 2 2 2 2 2 2 2 1 128 11 610 -.125 0 .125 .25 .375 .5 .
625 .75 .875 1 1.125 141 39 388 611 611 26 141 611 489 39 39 26 74 20 34 1 0 23
 0 0 0 0 0 0 0 0 0 0 0 0 0 0 0 0 0 0 0 80 1 32 612 613 8017 0 0 0 0 0 0 0 0 0 TT
TTTTTTTTTTTF3 84 20 33 skf_bearing_6209_2_379 13 613 SDL/TYSA_NAME81 1 14 69 32
 3 0 0 0 0 614 70 15 0 3 0 0 4 1 20 4 615 615 1 T13 16 44 0 3 0 616 0 0 617 0 51
 17 52 0 616 618 0 0 +.01670718091773885 0 0 -1 0 0 .0288 0 1 0 31 18 68 0 619 6
20 0 0 +.0011 0 0 1 0 0 0 1 0 .0225 29 19 60 0 621 622 0 .00458563816452227 .028
8 0 19 20 1 0 3 617 0 623 V16 21 37 0 ?624 0 625 626 0 0 3 18 22 38 0 624 0 621
 627 ?3 17 624 0 628 624 624 22 629 21 0 629 +18 621 33 0 630 22 631 19 ?3 29 62
7 57 0 22 632 633 .01441436183547772 .0288 0 29 632 56 0 634 635 627 .019 .0288
 0 29 633 58 0 636 627 622 .019 .0236 0 18 636 6 0 637 634 0 633 ?3 29 622 59 0
 638 633 19 .0011 .0225 0 18 638 18 0 639 640 641 622 ?3 17 639 0 642 639 639 63
8 643 619 0 643 +18 640 23 0 644 631 638 645 ?3 18 641 13 0 646 638 634 635 ?3 1
7 646 0 647 646 646 641 648 649 0 648 +18 634 9 0 650 641 636 632 ?3 29 635 55 0
 641 651 632 .0179 .0225 0 29 651 54 0 631 645 635 -1256915578562444e-34 .0288 0
 18 631 28 0 652 621 640 651 ?3 29 645 53 0 640 0 651 -4440892098500625e-34 .023
6 0 17 652 0 653 652 652 631 654 655 0 654 +15 653 34 0 652 656 657 17 654 0 658
 654 654 631 652 655 0 0 -16 655 27 0 ?652 625 659 660 0 0 3 16 625 32 0 ?630 21
 655 661 0 0 3 16 659 22 0 ?644 655 619 662 0 0 3 31 660 63 0 655 663 661 0 +0 0
 0 1 0 0 0 1 0 .0288 31 663 62 0 664 665 660 0 +.019 0 0 1 0 0 0 1 0 .0236 31 66
1 64 0 625 660 626 0 +.00458563816452227 0 0 1 0 0 0 1 0 .0288 31 626 65 0 21 66
1 662 0 +.01441436183547772 0 0 1 0 0 0 1 0 .0288 31 662 66 0 659 626 620 0 +0 0
 0 1 0 0 0 1 0 .0236 31 620 67 0 649 662 18 0 +.0179 0 0 1 0 0 0 1 0 .0225 16 64
9 12 0 ?646 619 666 620 0 0 3 16 619 17 0 ?639 659 649 18 0 0 3 16 666 8 0 ?650
 649 664 665 0 0 3 17 650 0 667 650 650 634 668 666 0 668 +16 664 5 0 ?637 666 0
 663 0 0 3 31 665 61 0 666 0 663 0 +.019 0 0 1 0 0 0 1 0 .0288 17 637 0 669 637
 637 636 670 664 0 670 +15 669 14 0 637 671 672 17 670 0 673 670 670 636 637 664
 0 0 -15 673 4 0 670 674 0 14 674 3 0 ?0 671 667 16 675 +0 0 0 671 623 14 671 10
 0 ?674 676 669 16 677 +0 0 674 676 623 15 667 7 0 650 674 673 50 675 50 0 674 6
78 618 0 +.019 .0262 0 1 0 0 0 1 0 13 623 2 0 0 0 0 0 0 20 616 14 616 40 0 ?679
 0 628 16 17 +0 0 679 0 623 14 679 35 0 ?656 616 680 16 681 -0 0 656 616 623 15
 628 42 0 624 616 682 15 682 41 0 668 616 0 17 668 0 682 668 668 634 650 666 0 0
 -14 656 30 0 ?683 679 653 16 684 +0 0 683 679 623 15 680 39 0 630 679 685 54 68
1 45 0 679 0 686 0 +.0095 0 0 1 0 0 .0325 .0061515 0 0 -1 54 686 46 0 687 681 68
4 0 +.0011 0 0 1 0 0 .0236 .0011 0 0 -1 14 687 20 0 ?676 683 642 16 686 +0 0 676
 683 623 51 684 47 0 656 686 677 0 +.002292819082261135 0 0 -1 0 0 .0288 0 1 0 5
4 677 48 0 671 684 678 0 +.0179 0 0 1 0 0 .0236 .0011 0 0 -1 50 678 49 0 683 677
 675 0 +-2848903838531535e-34 .0262 0 -1 612303176911189e-31 0 -612303176911189e
-31 -1 0 14 683 25 0 ?687 656 688 16 678 +0 0 687 656 623 15 688 29 0 644 683 65
8 17 644 0 688 644 644 640 689 659 0 689 +15 658 26 0 654 683 0 17 689 0 690 689
 689 640 644 659 0 0 -15 690 21 0 689 687 0 14 676 15 0 ?671 687 647 16 618 -0 0
 671 687 623 15 642 24 0 639 687 690 15 647 19 0 646 676 691 51 618 51 0 676 675
 17 0 +.0095 0 0 -1 0 0 .0225 0 1 0 15 691 16 0 643 676 0 17 643 0 691 643 643 6
38 639 619 0 0 -17 630 0 680 630 630 621 692 625 0 692 +15 685 36 0 629 679 0 17
 629 0 685 629 629 22 624 21 0 0 -17 692 0 657 692 692 621 630 625 0 0 -15 657 3
1 0 692 656 0 15 672 11 0 648 671 0 17 648 0 672 648 648 641 646 649 0 0 -19 617
 43 0 3 0 20 16 S74 20 615 1 0 14 0 0 0 0 0 0 0 0 0 0 0 0 0 0 0 0 0 0 0 84 20 61
4 skf_bearing_6209_2_281 1 5 117 32 2 0 0 0 0 693 70 6 0 2 0 0 4 1 20 4 694 694
 1 T13 7 74 0 2 0 695 0 0 696 0 51 8 88 0 697 698 0 0 +.0158823888239786 0 0 -1
 0 0 .0362 0 1 0 31 9 116 0 699 700 0 0 +.0144143618354777 0 0 1 0 0 0 1 0 .0362
 29 10 102 0 701 702 0 .01735041581247945 .0362 0 19 11 1 0 2 696 0 703 V16 12 6
7 0 ?704 0 705 706 0 0 2 18 13 68 0 704 0 707 708 ?2 17 704 0 709 704 704 13 710
 12 0 710 +18 707 63 0 711 13 712 713 ?2 29 708 90 0 13 714 715 .018721 .037595
 0 29 714 89 0 716 0 708 .001386522726180808 .03769189568313815 0 29 715 91 0 71
7 708 718 .001649584187520545 .0362 0 18 717 23 0 719 716 720 715 ?2 29 718 92 0
 721 715 722 -67707056866477e-32 .037595 0 18 721 38 0 723 724 725 718 ?2 29 722
 93 0 726 718 727 .0011 .0425 0 18 726 48 0 728 729 724 722 ?2 29 727 94 0 724 7
22 730 -4440892098500625e-34 .0414 0 18 724 43 0 731 726 721 727 ?2 29 730 95 0
 732 727 733 .0144143618354777 .0362 0 18 732 13 0 734 720 735 730 ?2 29 733 96
 0 720 730 736 .00458563816452229 .0362 0 18 720 18 0 737 717 732 733 ?2 29 736
 97 0 725 733 738 279e-6 .037595 0 18 725 33 0 739 721 716 736 ?2 29 738 98 0 71
2 736 713 .019 .0414 0 18 712 58 0 740 707 729 738 ?2 29 713 99 0 707 738 741 .0
19 .037595 0 29 741 100 0 729 713 702 .0179 .0425 0 18 729 53 0 742 712 726 741
 ?2 29 702 101 0 735 741 10 .0176134772738192 .03769189568313815 0 18 735 9 0 74
3 732 701 702 ?2 17 743 0 744 743 743 735 745 746 0 745 +18 701 6 0 747 735 0 10
 ?2 17 747 0 748 747 747 701 749 750 0 749 +15 748 14 0 747 697 751 17 749 0 752
 749 749 701 747 750 0 0 -16 750 5 0 ?747 746 0 753 0 0 2 16 746 8 0 ?743 699 75
0 754 0 0 2 31 753 112 0 750 755 756 0 +.01735041581247945 0 0 1 0 0 0 1 0 .0362
 31 755 111 0 757 758 753 0 +279e-6 0 0 1 0 0 0 1 0 .037595 31 756 113 0 705 753
 759 0 +.019 0 0 1 0 0 0 1 0 .037595 16 705 62 0 ?711 12 760 756 0 0 2 31 759 11
4 0 761 756 700 0 +.0179 0 0 1 0 0 0 1 0 .0425 16 761 52 0 ?742 760 762 759 0 0
 2 31 700 115 0 763 759 9 0 +.001649584187520545 0 0 1 0 0 0 1 0 .0362 16 763 22
 0 ?719 764 765 700 0 0 2 17 719 0 766 719 719 717 767 763 0 767 +16 764 27 0 ?7
68 757 763 769 0 0 2 16 765 17 0 ?737 763 699 770 0 0 2 17 737 0 771 737 737 720
 772 765 0 772 +16 699 12 0 ?734 765 746 9 0 0 2 31 770 107 0 765 773 774 0 +.00
458563816452229 0 0 1 0 0 0 1 0 .0362 31 773 106 0 760 775 770 0 +.019 0 0 1 0 0
 0 1 0 .0414 31 774 108 0 762 770 769 0 +.0011 0 0 1 0 0 0 1 0 .0425 16 762 47 0
 ?728 761 776 774 0 0 2 31 769 109 0 764 774 758 0 +.001386522726180808 0 0 1 0
 0 0 1 0 .03769189568313815 31 758 110 0 776 769 755 0 +0 0 0 1 0 0 0 1 0 .0414
 16 776 42 0 ?731 762 777 758 0 0 2 17 731 0 778 731 731 724 779 776 0 779 +16 7
77 37 0 ?723 776 757 775 0 0 2 17 723 0 780 723 723 721 781 777 0 781 +16 757 32
 0 ?739 777 764 755 0 0 2 31 775 105 0 777 706 773 0 +0 0 0 1 0 0 0 1 0 .037595
 31 706 104 0 12 754 775 0 +.018721 0 0 1 0 0 0 1 0 .037595 31 754 103 0 746 0 7
06 0 +.0176134772738192 0 0 1 0 0 0 1 0 .03769189568313815 17 739 0 782 739 739
 725 783 757 0 783 +15 782 39 0 739 784 785 17 783 0 786 783 783 725 739 757 0 0
 -15 786 31 0 783 787 0 14 787 30 0 ?788 784 789 7 790 -0 0 788 784 703 14 788 2
5 0 ?791 787 766 7 792 -0 0 791 787 703 14 784 35 0 ?787 793 782 7 794 -0 0 787
 793 703 15 789 34 0 768 787 786 54 790 82 0 787 795 794 0 +837e-6 0 0 1 0 0 .03
7595 558e-6 0 0 -1 13 703 2 0 0 0 0 0 0 11 695 14 695 70 0 ?796 0 709 7 797 -0 0
 796 0 703 14 796 65 0 ?798 695 799 7 698 -0 0 798 695 703 15 709 72 0 704 695 8
00 54 797 79 0 695 792 801 0 +.018163 0 0 1 0 0 .037595 558e-6 0 0 -1 52 792 78
 0 788 802 797 0 +.001518053456850675 0 0 -1 0 0 .03694594784156905 .98480775301
2208 .1736481776669295 0 1 0 52 801 80 0 803 797 795 0 +.0174819465431493 0 0 1
 0 0 .03694594784156905 .984807753012207 .1736481776669355 0 1 0 14 803 3 0 ?0 6
97 744 7 801 -0 0 0 697 703 51 795 81 0 804 801 790 0 +.0095 0 0 -1 0 0 .0425 0
 1 0 14 804 50 0 ?805 806 807 7 795 +0 0 805 806 703 14 805 45 0 ?793 804 778 7
 808 +0 0 793 804 703 14 806 55 0 ?804 798 809 7 810 +0 0 804 798 703 15 807 54
 0 728 804 811 17 728 0 807 728 728 726 812 762 0 812 +15 811 51 0 813 804 0 17
 813 0 811 813 813 729 742 761 0 0 -17 742 0 809 742 742 729 813 761 0 813 +15 8
09 59 0 742 806 814 15 814 56 0 815 806 0 17 815 0 814 815 815 712 740 760 0 0 -
17 740 0 816 740 740 712 815 760 0 815 +16 760 57 0 ?740 705 761 773 0 0 2 15 81
6 64 0 740 798 817 14 798 60 0 ?806 796 816 7 802 +0 0 806 796 703 15 817 61 0 8
18 798 0 17 818 0 817 818 818 707 711 705 0 0 -17 711 0 799 711 711 707 818 705
 0 818 +15 799 69 0 711 796 819 15 819 66 0 710 796 0 17 710 0 819 710 710 13 70
4 12 0 0 -50 802 77 0 798 810 792 0 +.019 .0394975 0 1 0 0 0 1 0 54 810 76 0 806
 820 802 0 +.0179 0 0 1 0 0 .0414 .0011 0 0 -1 51 820 75 0 791 0 810 0 +.0031176
11176021415 0 0 -1 0 0 .0362 0 1 0 14 791 20 0 ?821 788 771 7 820 -0 0 821 788 7
03 14 821 15 0 ?697 791 822 7 823 -0 0 697 791 703 15 771 24 0 737 791 824 15 82
4 21 0 767 791 0 17 767 0 824 767 767 717 719 763 0 0 -14 697 10 0 ?803 821 748
 7 8 -0 0 803 821 703 15 822 19 0 734 821 825 54 823 85 0 821 808 826 0 +.0095 0
 0 1 0 0 .0325 .0061515 0 0 -1 54 808 84 0 805 794 823 0 +.0011 0 0 1 0 0 .0414
 .0011 0 0 -1 50 826 86 0 793 823 698 0 +-560579889257416e-33 .0394975 0 -1 6123
03176911189e-31 0 -612303176911189e-31 -1 0 14 793 40 0 ?784 805 780 7 826 +0 0
 784 805 703 51 698 87 0 796 826 8 0 +.0188605 0 0 -1 0 0 .037595 0 1 0 15 780 4
4 0 723 793 827 15 827 41 0 779 793 0 17 779 0 827 779 779 724 731 776 0 0 -51 7
94 83 0 784 790 808 0 +.0001394999999999982 0 0 -1 0 0 .037595 0 1 0 17 734 0 82
2 734 734 732 828 699 0 828 +15 825 16 0 772 821 0 17 772 0 825 772 772 720 737
 765 0 0 -17 828 0 751 828 828 732 734 699 0 0 -15 751 11 0 828 697 0 17 812 0 8
29 812 812 726 728 762 0 0 -15 829 46 0 812 805 0 15 778 49 0 731 805 829 15 744
 7 0 743 803 752 15 752 4 0 749 803 0 15 800 71 0 745 695 0 17 745 0 800 745 745
 735 743 746 0 0 -17 768 0 789 768 768 716 830 764 0 830 +18 716 28 0 768 725 71
7 714 ?2 17 830 0 831 830 830 716 768 764 0 0 -15 831 26 0 830 788 0 15 766 29 0
 719 788 831 15 785 36 0 781 784 0 17 781 0 785 781 781 721 723 777 0 0 -19 696
 73 0 2 0 11 7 S74 20 694 1 0 5 0 0 0 0 0 0 0 0 0 0 0 0 0 0 0 0 0 0 0 84 20 693
 skf_bearing_6209_2_11 0 
