**ABCDEFGHIJKLMNOPQRSTUVWXYZabcdefghijklmnopqrstuvwxyz**************************
**PARASOLID !"#$%&'()*+,-./:;<=>?@[\]^_`{|}~0123456789**************************
**PART1;
FORMAT=text;
GUISE=transmit;
KEY=unicode filename;
FILE=unicode filename;
DATE=unknown;
**PART2;
SCH=SCH_3200152_32001;
USFLD_SIZE=0;
**PART3;
**END_OF_HEADER*****************************************************************
T51 : TRANSMIT FILE created by modeller version 320015217 SCH_1300000_130060 74
 3 1 3 0 2 3 4 12 2 117 5 6 0 0 0 0 1e3 1e-8 0 0 3 1 0 1 1 7 8 9 10 11 12 13 12
 3 69 14 15 0 0 0 0 1e3 1e-8 0 2 4 1 0 1 1 16 17 18 19 20 21 22 12 4 213 23 24 0
 0 0 0 1e3 1e-8 0 3 0 1 0 1 1 25 26 27 28 29 30 31 81 1 23 133 32 4 0 0 0 0 33 7
0 24 0 4 0 0 4 1 20 4 34 34 1 T13 25 84 0 4 0 35 0 0 36 0 54 26 100 0 37 38 0 39
 +.0125 0 0 1 0 612303176911189e-31 .03625 17462e-9 612303176911189e-31 0 -1 137
 27 212 0 4 40 0 41 +42 43 0 ?29 28 116 0 44 45 0 .0125 -.0352160129506406 -.008
6695577616022 19 29 1 0 4 36 0 46 V16 30 57 0 5e-7 47 0 48 0 0 0 4 18 31 58 0 47
 0 49 50 5e-7 4 17 47 0 51 47 47 31 52 30 53 52 +18 49 55 0 54 31 55 45 5e-7 4 2
9 50 109 0 31 56 57 .0125 .0352160129506406 .0086695577616022 29 56 108 0 58 59
 50 .0125 .0086695577616022 -.0352160129506406 29 57 110 0 60 50 61 .0125 .01877
117848063385 -.03103178464686865 18 60 6 0 62 63 0 57 5e-7 4 29 61 111 0 64 57 6
5 .0125 -.03103178464686865 .01877117848063385 18 64 37 0 66 67 68 61 5e-7 4 29
 65 112 0 69 61 70 .0125 .03103178464686865 .01877117848063385 18 69 48 0 71 55
 72 65 5e-7 4 29 70 113 0 73 65 74 .0125 -.0352160129506406 .0086695577616022 18
 73 27 0 75 44 76 70 5e-7 4 29 74 114 0 77 70 45 .0125 -.00866955776160221 -.035
2160129506406 18 77 13 0 78 58 63 74 5e-7 4 29 45 115 0 49 74 28 .0125 .03521601
29506406 -.0086695577616022 17 78 0 79 78 78 77 80 81 82 80 +18 58 16 0 83 84 77
 56 5e-7 4 18 63 9 0 85 77 60 86 5e-7 4 17 85 0 87 85 85 63 88 89 90 88 +29 86 1
01 0 63 0 91 .0125 .03103178464686865 -.01877117848063385 29 91 102 0 55 86 92 .
0125 .01877117848063385 .03103178464686865 18 55 51 0 93 49 69 91 5e-7 4 29 92 1
03 0 84 91 94 .0125 -.03103178464686865 -.01877117848063385 18 84 20 0 95 76 58
 92 5e-7 4 29 94 104 0 76 92 96 .0125 -.01877117848063385 -.03103178464686865 18
 76 23 0 97 73 84 94 5e-7 4 29 96 105 0 72 94 98 .0125 -.0086695577616022 .03521
60129506406 18 72 44 0 99 69 67 96 5e-7 4 29 98 106 0 68 96 59 .0125 -.018771178
48063385 .03103178464686865 18 68 34 0 100 64 44 98 5e-7 4 29 59 107 0 67 98 56
 .0125 .0086695577616022 .0352160129506406 18 67 41 0 101 72 64 59 5e-7 4 17 101
 0 102 101 101 67 103 104 105 103 +15 102 60 0 101 37 0 17 103 0 106 103 103 67
 101 104 107 0 -16 104 40 0 5e-7 101 108 109 0 0 0 4 133 105 159 0 101 110 111 0
 +111 .0125 .00866955776160219 .0352160129506406 .0125 .00866955776160219 .03521
60129506406 0 1 137 110 157 0 4 112 105 113 +114 115 0 ?137 111 160 0 4 105 107
 116 +26 117 0 ?133 107 161 0 103 111 118 0 +118 .0125 .00866955776160221 .03521
60129506406 .0125 .00866955776160221 .0352160129506406 0 1 141 116 105 116 116 1
11 134 117 0 0 0 0 0 0 +119 120 136 119 2 9 2 5 5 FFF1 121 122 123 135 120 2 0 4
5 18 121 2.9002103698137 241418041922884e-28 2.9002103698137 .571151034389561 2.
90015195456576 1.57079744426915 2.90009349701717 2.57116773523276 2.900093497017
17 3.141592653589795 2.90009349701717 3.71202067904591 2.90015195456576 4.712387
86291044 2.9002103698137 5.71203116793928 2.9002103698137 6.28318530717961 127 5
 122 3 2 2 2 3 128 5 123 0 .25 .5 .75 1 137 118 162 0 4 107 124 125 +114 126 0 ?
133 124 164 0 66 118 127 0 +127 .0125 -.0310317846468686 .0187711784806339 .0125
 -.0310317846468686 .0187711784806339 0 1 141 125 107 125 125 118 53 114 95 0 12
8 129 130 131 +.0125 221959901630306e-32 .03625 .008731 0 -1 612303176911189e-31
 1 0 0 134 126 0 0 0 0 0 0 +132 133 136 132 2 17 2 11 5 TTF1 134 135 136 135 133
 2 0 45 34 134 4.71238898038469 -1.452090637532536 4.70538746669882 -1.452090637
532536 4.70048767447038 -1.451489876153278 4.69568839442048 -1.45090143852821 4.
69578295030775 -1.45005948951158 4.69587519503565 -1.449238119629832 4.700763493
1054 -1.448645531876912 4.70556216674166 -1.44806380891597 4.71238898038469 -1.4
4806130995761 4.71911766328953 -1.448058846920052 4.72401446766397 -1.4486455318
76912 4.72886043814297 -1.449226126436962 4.72899501046163 -1.45005948951158 4.7
2912902268466 -1.45088938409417 4.72429028629899 -1.451489876153278 4.7194493797
4439 -1.452090637532536 4.71238898038469 -1.452090637532536 127 11 135 1 2 2 2 2
 2 2 2 2 2 1 128 11 136 -.125 0 .125 .25 .375 .5 .625 .75 .875 1 1.125 14 128 38
 0 ?137 138 139 25 114 +0 0 137 138 46 53 129 94 0 137 140 114 141 +.0125 -.0256
3262081801235 .02563262081801235 .008731 0 -.707106781186548 -.707106781186548 1
 0 0 54 130 96 0 142 114 143 144 +.0125 0 0 1 0 612303176911189e-31 .03625 17462
e-9 612303176911189e-31 0 -1 141 131 110 145 145 114 141 145 118 131 131 114 14
 142 62 0 ?37 146 87 25 130 +0 0 37 146 46 53 143 97 0 138 130 147 148 +.0125 .0
2563262081801235 .02563262081801235 .008731 0 -.707106781186548 .707106781186548
 1 0 0 141 144 149 150 150 130 137 149 140 0 4 151 152 153 +130 154 0 ?141 150 1
55 144 144 130 137 155 205 0 4 90 156 157 +130 158 0 ?133 90 204 0 85 159 155 0
 +155 .0125 .03103178464686865 -.0187711784806339 .0125 .03103178464686865 -.018
7711784806339 0 1 133 156 206 0 88 155 160 0 +160 .0125 .03103178464686865 -.018
77117848063385 .0125 .03103178464686865 -.01877117848063385 0 1 141 157 90 157 1
57 155 134 158 0 0 0 0 0 0 +161 162 136 161 2 9 2 5 5 FFF1 163 164 165 135 162 2
 0 45 18 163 1.026780447173542 33521833362204e-27 1.026780447173542 -.5711510343
1423 1.02683886242148 -1.570797444269945 1.02689731997007 -2.57116773532494 1.02
689731997007 -3.141592653589795 1.02689731997007 -3.71202067992176 1.02683886242
148 -4.71238786290964 1.026780447173542 -5.71203116704728 1.026780447173542 -6.2
8318530717955 127 5 164 3 2 2 2 3 128 5 165 0 .25 .5 .75 1 17 88 0 166 88 88 63
 85 89 156 0 -137 160 207 0 4 156 167 168 +42 169 0 ?133 167 209 0 62 160 170 0
 +170 .0125 .01877117848063385 -.03103178464686865 .0125 .01877117848063385 -.03
103178464686865 0 1 141 168 156 168 168 160 53 42 89 0 171 172 173 174 +.0125 .0
2563262081801235 -.02563262081801235 .008731 0 .707106781186548 .707106781186547
 1 0 0 134 169 0 0 0 0 0 0 +175 176 136 175 2 17 2 11 5 TTF1 177 178 179 135 176
 2 0 45 34 177 4.71238898038469 1.452090637532536 4.71939049407088 1.45209063753
2536 4.724290286299 1.451489876153278 4.72908956634888 1.450901438528174 4.72899
501046163 1.45005948951158 4.72890276573373 1.449238119629676 4.72401446766398 1
.448645531876912 4.71921579402454 1.448063808915736 4.71238898038469 1.448061309
95761 4.70566029747766 1.44805884692028 4.7007634931054 1.448645531876912 4.6959
1752262639 1.449226126436994 4.69578295030775 1.45005948951158 4.69564893808472
 1.450889384094266 4.70048767447039 1.451489876153278 4.70532858102576 1.4520906
37532536 4.71238898038469 1.452090637532536 127 11 178 1 2 2 2 2 2 2 2 2 2 1 128
 11 179 -.125 0 .125 .25 .375 .5 .625 .75 .875 1 1.125 14 171 3 0 ?0 180 166 25
 42 +0 0 0 180 46 54 172 88 0 181 182 42 183 +.0125 0 0 1 0 612303176911189e-31
 .03625 17462e-9 612303176911189e-31 0 -1 54 173 90 0 146 42 184 185 +.0125 0 0
 1 0 612303176911189e-31 .03625 17462e-9 612303176911189e-31 0 -1 141 174 160 18
6 186 42 141 186 27 174 174 42 14 146 65 0 ?142 187 188 25 173 +0 0 142 187 46 5
4 184 91 0 189 173 190 191 +.0125 0 0 1 0 612303176911189e-31 .03625 17462e-9 61
2303176911189e-31 0 -1 141 185 192 193 193 173 137 192 195 0 4 194 195 196 +173
 197 0 ?141 193 170 185 185 173 137 170 210 0 4 167 40 198 +173 199 0 ?133 40 21
1 0 200 170 27 0 +27 .0125 .01877117848063385 -.03103178464686865 .0125 .0187711
7848063385 -.03103178464686865 0 1 141 198 167 198 198 170 134 199 0 0 0 0 0 0 +
201 202 136 201 2 9 2 5 5 FFF1 203 204 205 135 202 2 0 45 18 203 .54401587962135
4 -94698520486418e-28 .544015879621354 .571151033997917 .543957464373416 1.57079
7444269945 .543899006824826 2.571167735639585 .543899006824826 3.141592653589795
 .543899006824826 3.712020680240295 .543957464373416 4.71238786290964 .544015879
621354 5.71203116673087 .544015879621354 6.28318530717958 127 5 204 3 2 2 2 3 12
8 5 205 0 .25 .5 .75 1 17 200 0 206 200 200 60 62 207 40 0 -15 206 4 0 200 171 0
 17 62 0 208 62 62 60 200 207 167 200 +16 207 5 0 5e-7 62 89 0 0 0 0 4 16 89 8 0
 5e-7 85 81 207 0 0 0 4 16 81 12 0 5e-7 78 209 89 0 0 0 4 16 209 15 0 5e-7 83 21
0 81 0 0 0 4 17 83 0 188 83 83 58 211 209 194 211 +16 210 19 0 5e-7 95 212 209 0
 0 0 4 17 95 0 213 95 95 84 214 210 215 214 +16 212 22 0 5e-7 97 216 210 0 0 0 4
 17 97 0 217 97 97 76 218 212 219 218 +16 216 26 0 5e-7 75 220 212 0 0 0 4 17 75
 0 221 75 75 73 222 216 223 222 +16 220 29 0 5e-7 224 225 216 0 0 0 4 17 224 0 2
26 224 224 44 227 220 228 227 +16 225 33 0 5e-7 100 109 220 0 0 0 4 17 100 0 229
 100 100 68 230 225 231 230 +16 109 36 0 5e-7 66 104 225 0 0 0 4 17 66 0 232 66
 66 64 233 109 124 233 +15 232 76 0 66 181 221 17 233 0 234 233 233 64 66 109 23
5 0 -15 234 35 0 233 137 236 133 235 166 0 233 127 237 0 +237 .0125 -.0310317846
4686865 .01877117848063385 .0125 -.03103178464686865 .01877117848063385 0 1 137
 127 165 0 4 124 235 238 +172 239 0 ?137 237 167 0 4 235 231 240 +129 241 0 ?133
 231 169 0 100 237 242 0 +242 .0125 -.01877117848063385 .03103178464686865 .0125
 -.01877117848063385 .03103178464686865 0 1 141 240 235 240 240 237 134 241 0 0
 0 0 0 0 +243 244 136 243 2 17 2 11 5 TTF1 245 246 247 135 244 2 0 45 34 245 4.7
1238898038469 1.452090637532536 4.7193904940715 1.452090637532536 4.724290286299
 1.451489876153276 4.72908956634887 1.450901438528098 4.72899501046163 1.4500594
8951158 4.72890276573373 1.449238119629716 4.72401446766397 1.448645531876912 4.
7192157940266 1.448063808915948 4.71238898038469 1.448061309957606 4.70566029748
056 1.44805884692007 4.7007634931054 1.44864553187691 4.69591752262665 1.4492261
26436826 4.69578295030775 1.45005948951158 4.69564893808449 1.450889384094172 4.
70048767447038 1.451489876153278 4.70532858102521 1.452090637532536 4.7123889803
8469 1.452090637532536 127 11 246 1 2 2 2 2 2 2 2 2 2 1 128 11 247 -.125 0 .125
 .25 .375 .5 .625 .75 .875 1 1.125 137 242 170 0 4 231 248 249 +184 250 0 ?133 2
48 171 0 230 242 251 0 +251 .0125 -.01877117848063385 .03103178464686865 .0125 -
.01877117848063385 .03103178464686865 0 1 141 249 231 249 249 242 134 250 0 0 0
 0 0 0 +252 253 136 252 2 9 2 5 5 FFF1 254 255 256 135 253 2 0 45 18 254 3.68560
853321115 946985204864175e-29 3.68560853321115 .571151034314277 3.68555011796321
 1.570797444269945 3.68549166041462 2.571167735317295 3.68549166041462 3.1415926
53589795 3.68549166041462 3.712020679045115 3.68555011796321 4.71238786290964 3.
68560853321115 5.71203116793089 3.68560853321115 6.2831853071796 127 5 255 3 2 2
 2 3 128 5 256 0 .25 .5 .75 1 17 230 0 236 230 230 68 100 225 248 0 -137 251 172
 0 4 248 228 257 +129 258 0 ?133 228 174 0 224 251 259 0 +259 .0125 -.0352160129
506406 -.0086695577616022 .0125 -.0352160129506406 -.0086695577616022 0 1 141 25
7 248 257 257 251 134 258 0 0 0 0 0 0 +260 261 136 260 2 17 2 11 5 TTF1 262 263
 264 135 261 2 0 45 34 262 4.71238898038469 -1.452090637532536 4.70538746669826
 -1.452090637532536 4.70048767447038 -1.451489876153276 4.69568839442066 -1.4509
01438528162 4.69578295030775 -1.45005948951158 4.69587519503549 -1.4492381196297
16 4.7007634931054 -1.448645531876912 4.70556216674261 -1.448063808915986 4.7123
8898038469 -1.448061309957606 4.71911766328896 -1.44805884692003 4.7240144676639
7 -1.448645531876912 4.72886043814313 -1.449226126436934 4.72899501046163 -1.450
05948951158 4.7291290226845 -1.450889384094284 4.724290286299 -1.451489876153276
 4.71944937974361 -1.452090637532536 4.71238898038469 -1.452090637532536 127 11
 263 1 2 2 2 2 2 2 2 2 2 1 128 11 264 -.125 0 .125 .25 .375 .5 .625 .75 .875 1 1
.125 137 259 175 0 4 228 265 266 +140 267 0 ?133 265 176 0 227 259 268 0 +268 .0
125 -.0352160129506406 -.0086695577616022 .0125 -.0352160129506406 -.00866955776
16022 0 1 141 266 228 266 266 259 54 140 93 0 269 190 129 270 +.0125 0 0 1 0 612
303176911189e-31 .03625 17462e-9 612303176911189e-31 0 -1 134 267 0 0 0 0 0 0 +2
71 272 136 271 2 9 2 5 5 FFF1 273 274 275 135 272 2 0 45 18 273 4.95377126416078
 -303997122886452e-28 4.95377126416078 -.571151032721513 4.95382967940872 -1.570
797444269545 4.95388813695731 -2.57116773693322 4.95388813695731 -3.141592653589
795 4.95388813695731 -3.712020680631425 4.95382967940872 -4.71238786291004 4.953
77126416078 -5.71203116632373 4.95377126416078 -6.28318530717962 127 5 274 3 2 2
 2 3 128 5 275 0 .25 .5 .75 1 14 269 71 0 ?187 181 226 25 140 +0 0 187 181 46 53
 190 92 0 276 184 140 277 +.0125 -.03625 443919803260612e-32 .008731 0 -12246063
53822376e-31 -1 1 0 0 141 270 259 278 278 140 141 278 279 270 270 140 137 279 19
0 0 4 215 280 281 +140 282 0 ?133 215 189 0 95 283 279 0 +279 .0125 -.0310317846
4686865 -.01877117848063385 .0125 -.03103178464686865 -.01877117848063385 0 1 13
3 280 191 0 214 279 284 0 +284 .0125 -.03103178464686865 -.01877117848063385 .01
25 -.03103178464686865 -.01877117848063385 0 1 141 281 215 281 281 279 134 282 0
 0 0 0 0 0 +285 286 136 285 2 9 2 5 5 FFF1 287 288 289 135 286 2 0 45 18 287 5.2
5640486000604 3352183336220405e-29 5.25640486000604 .571151035822568 5.256346444
75811 1.570797444269545 5.25628798720952 2.571167733799515 5.25628798720952 3.14
1592653589795 5.25628798720952 3.712020677444795 5.25634644475811 4.712387862910
44 5.25640486000604 5.71203116953923 5.25640486000604 6.28318530717962 127 5 288
 3 2 2 2 3 128 5 289 0 .25 .5 .75 1 17 214 0 290 214 214 84 95 210 280 0 -137 28
4 192 0 4 280 194 291 +292 293 0 ?133 194 194 0 83 284 192 0 +192 .0125 .0086695
5776160219 -.0352160129506406 .0125 .00866955776160219 -.0352160129506406 0 1 14
1 291 280 291 291 284 53 292 85 0 294 0 295 296 +.0125 -.02563262081801235 -.025
63262081801235 .008731 0 .707106781186548 -.707106781186548 1 0 0 134 293 0 0 0
 0 0 0 +297 298 136 297 2 17 2 11 5 TTF1 299 300 301 135 298 2 0 45 34 299 4.712
38898038469 -1.452090637532538 4.70538746669937 -1.452090637532538 4.70048767447
038 -1.451489876153278 4.69568839442017 -1.45090143852824 4.69578295030775 -1.45
005948951158 4.69587519503598 -1.44923811962957 4.70076349310541 -1.448645531876
912 4.70556216674382 -1.44806380891593 4.71238898038469 -1.448061309957608 4.719
11766328979 -1.44805884692009 4.72401446766398 -1.448645531876912 4.728860438142
91 -1.449226126436946 4.72899501046163 -1.45005948951158 4.72912902268475 -1.450
889384094344 4.72429028629901 -1.451489876153278 4.71944937974292 -1.45209063753
2538 4.71238898038469 -1.452090637532538 127 11 300 1 2 2 2 2 2 2 2 2 2 1 128 11
 301 -.125 0 .125 .25 .375 .5 .625 .75 .875 1 1.125 14 294 17 0 ?180 276 302 25
 292 +0 0 180 276 46 53 295 86 0 180 292 182 303 +.0125 -665879704890918e-32 -.0
3625 .008731 0 1 -1836909530733565e-31 1 0 0 141 296 283 304 304 292 137 283 187
 0 4 305 215 306 +292 307 0 ?141 304 284 296 296 292 133 305 186 0 218 308 283 0
 +283 .0125 -.0187711784806339 -.03103178464686865 .0125 -.0187711784806339 -.03
103178464686865 0 1 141 306 305 306 306 283 134 307 0 0 0 0 0 0 +309 310 136 309
 2 17 2 11 5 TTF1 311 312 313 135 310 2 0 45 34 311 4.71238898038469 1.452090637
532536 4.71939049407095 1.452090637532536 4.724290286299 1.451489876153278 4.729
08956634919 1.450901438528128 4.72899501046163 1.45005948951158 4.72890276573342
 1.449238119629698 4.72401446766398 1.448645531876912 4.71921579402725 1.4480638
08916008 4.71238898038469 1.448061309957608 4.70566029748071 1.448058846920012 4
.7007634931054 1.448645531876912 4.69591752262643 1.449226126436894 4.6957829503
0775 1.45005948951158 4.6956489380847 1.450889384094246 4.70048767447038 1.45148
9876153278 4.70532858102561 1.452090637532536 4.71238898038469 1.452090637532536
 127 11 312 1 2 2 2 2 2 2 2 2 2 1 128 11 313 -.125 0 .125 .25 .375 .5 .625 .75 .
875 1 1.125 17 218 0 302 218 218 76 97 212 305 0 -137 308 185 0 4 219 305 314 +1
82 315 0 ?133 219 184 0 97 316 308 0 +308 .0125 -.0187711784806339 -.03103178464
68686 .0125 -.0187711784806339 -.0310317846468686 0 1 141 314 219 314 314 308 54
 182 87 0 187 295 172 317 +.0125 0 0 1 0 612303176911189e-31 .03625 17462e-9 612
303176911189e-31 0 -1 134 315 0 0 0 0 0 0 +318 319 136 318 2 9 2 5 5 FFF1 320 32
1 322 135 319 2 0 45 18 320 5.73916942755823 -946985204864175e-29 5.739169427558
23 -.571151032623032 5.73922784280617 -1.570797444269945 5.73928630035476 -2.571
16773700216 5.73928630035476 -3.141592653589795 5.73928630035476 -3.712020680647
02 5.73922784280617 -4.71238786291044 5.73916942755823 -5.71203116633933 5.73916
942755823 -6.2831853071796 127 5 321 3 2 2 2 3 128 5 322 0 .25 .5 .75 1 14 187 6
8 0 ?146 269 217 25 182 +0 0 146 269 46 141 317 308 323 323 182 141 323 324 317
 317 182 137 324 200 0 4 82 325 326 +182 327 0 ?133 82 199 0 78 328 324 0 +324 .
0125 -.00866955776160221 -.0352160129506406 .0125 -.00866955776160221 -.03521601
29506406 0 1 133 325 201 0 80 324 159 0 +159 .0125 -.00866955776160222 -.0352160
129506406 .0125 -.00866955776160222 -.0352160129506406 0 1 141 326 82 326 326 32
4 134 327 0 0 0 0 0 0 +329 330 136 329 2 9 2 5 5 FFF1 331 332 333 135 330 2 0 45
 18 331 6.04180302340349 -241418041922788e-28 6.04180302340349 .571151032021947
 6.04174460815913 1.57079738302115 6.04168615060696 2.57116773761156 6.041686150
60696 3.141592653589795 6.04168615060696 3.71202067717207 6.04174460815197 4.712
38780156707 6.04180302340349 5.7120311698125 6.04180302340349 6.28318530717956 1
27 5 332 3 2 2 2 3 128 5 333 0 .25 .5 .75 1 17 80 0 334 80 80 77 78 81 325 0 -13
7 159 202 0 4 325 90 335 +295 336 0 ?141 335 325 335 335 159 134 336 0 0 0 0 0 0
 +337 338 136 337 2 17 2 11 5 TTF1 339 340 341 135 338 2 0 45 34 339 4.712388980
38469 -1.452090637532536 4.70538746631602 -1.452090637532536 4.70048767410885 -1
.451489876108682 4.69568839390099 -1.45090143841801 4.69578295032467 -1.45005948
9388012 4.69587519558298 -1.449238119429882 4.70076349419021 -1.448645531746174
 4.70556216890089 -1.448063808786888 4.71238898240363 -1.44806130995761 4.719114
8280018 -1.44805884808577 4.72401522427013 -1.448645620560956 4.72886038175853 -
1.44922577875561 4.72899501047852 -1.450059489634958 4.7291290746975 -1.45088970
4747352 4.72429104142467 -1.451489785563968 4.71944679089125 -1.452090637532536
 4.71238898038469 -1.452090637532536 127 11 340 1 2 2 2 2 2 2 2 2 2 1 128 11 341
 -.125 0 .125 .25 .375 .5 .625 .75 .875 1 1.125 15 334 11 0 80 180 0 14 180 10 0
 ?171 294 342 25 295 +0 0 171 294 46 15 342 14 0 211 180 334 13 46 2 0 0 0 0 0 0
 29 35 14 35 80 0 ?189 0 51 25 147 +0 0 189 0 46 14 189 77 0 ?181 35 343 25 184
 +0 0 181 35 46 15 51 82 0 47 35 344 54 147 98 0 35 143 38 345 +.0125 0 0 1 0 61
2303176911189e-31 .03625 17462e-9 612303176911189e-31 0 -1 53 38 99 0 346 147 26
 347 +.0125 .03625 0 .008731 0 0 1 1 0 0 141 345 348 349 349 147 137 348 135 0 4
 53 350 351 +147 352 0 ?141 349 353 345 345 147 137 353 150 0 4 354 355 356 +147
 357 0 ?133 354 149 0 71 358 353 0 +353 .0125 .03103178464686865 .01877117848063
39 .0125 .03103178464686865 .0187711784806339 0 1 133 355 151 0 359 353 360 0 +3
60 .0125 .03103178464686865 .01877117848063385 .0125 .03103178464686865 .0187711
7848063385 0 1 141 356 354 356 356 353 134 357 0 0 0 0 0 0 +361 362 136 361 2 9
 2 5 5 FFF1 363 364 365 135 362 2 0 45 18 363 2.11481220641625 -335218333622174e
-28 2.11481220641625 .571151033615451 2.11475379117189 1.570797383022345 2.11469
5333619725 2.57116773600408 2.114695333619725 3.141592653589795 2.11469533361972
5 3.71202067877243 2.11475379116473 4.71238780156628 2.11481220641625 5.71203116
821171 2.11481220641625 6.28318530717955 127 5 364 3 2 2 2 3 128 5 365 0 .25 .5
 .75 1 17 359 0 366 359 359 69 71 367 355 0 -137 360 152 0 4 355 368 369 +143 37
0 0 ?133 368 154 0 99 360 371 0 +371 .0125 -.00866955776160219 .0352160129506406
 .0125 -.00866955776160219 .0352160129506406 0 1 141 369 355 369 369 360 134 370
 0 0 0 0 0 0 +372 373 136 372 2 17 2 11 5 TTF1 374 375 376 135 373 2 0 45 34 374
 4.71238898038469 -1.452090637532536 4.7053874663157 -1.452090637532536 4.700487
67410885 -1.45148987610868 4.69568839390146 -1.45090143841803 4.69578295032466 -
1.45005948938801 4.6958751955825 -1.44923811942994 4.7007634941902 -1.4486455317
46174 4.70556216890042 -1.448063808786944 4.71238898240362 -1.448061309957606 4.
71911482800157 -1.44805884808571 4.72401522427013 -1.448645620560952 4.728860381
75818 -1.449225778755596 4.72899501047852 -1.450059489634954 4.72912907469782 -1
.450889704747242 4.72429104142466 -1.451489785563966 4.71944679089179 -1.4520906
37532536 4.71238898038469 -1.452090637532536 127 11 375 1 2 2 2 2 2 2 2 2 2 1 12
8 11 376 -.125 0 .125 .25 .375 .5 .625 .75 .875 1 1.125 17 99 0 343 99 99 72 377
 108 368 377 +137 371 155 0 4 368 112 378 +184 379 0 ?133 112 156 0 377 371 110
 0 +110 .0125 -.00866955776160221 .0352160129506406 .0125 -.00866955776160221 .0
352160129506406 0 1 141 378 368 378 378 371 134 379 0 0 0 0 0 0 +380 381 136 380
 2 9 2 5 5 FFF1 382 383 384 135 381 2 0 45 18 382 3.382974937365885 241418041922
6925e-29 3.382974937365885 -.571151034230598 3.383033352613825 -1.57079744426994
5 3.383091810162415 -2.571167735408635 3.383091810162415 -3.141592653589795 3.38
3091810162415 -3.712020678961865 3.383033352613825 -4.71238786291004 3.382974937
365885 -5.71203116802247 3.382974937365885 -6.28318530717956 127 5 383 3 2 2 2 3
 128 5 384 0 .25 .5 .75 1 17 377 0 139 377 377 72 99 108 112 0 -15 139 42 0 377
 128 106 16 108 43 0 5e-7 99 367 104 0 0 0 4 16 367 47 0 5e-7 71 385 108 0 0 0 4
 17 71 0 344 71 71 69 359 367 354 359 +16 385 50 0 5e-7 93 48 367 0 0 0 4 17 93
 0 386 93 93 55 387 385 388 387 +16 48 54 0 5e-7 54 30 385 0 0 0 4 17 54 0 389 5
4 54 49 390 48 151 390 +15 389 63 0 54 142 0 17 390 0 391 390 390 49 54 48 152 0
 -133 151 139 0 54 392 149 0 +149 .0125 .0352160129506406 -.0086695577616022 .01
25 .0352160129506406 -.0086695577616022 0 1 137 392 137 0 4 350 151 393 +38 394
 0 ?133 350 136 0 52 348 392 0 +392 .0125 .0352160129506406 .00866955776160221 .
0125 .0352160129506406 .00866955776160221 0 1 141 393 350 393 393 392 134 394 0
 0 0 0 0 0 +395 396 136 395 2 17 2 11 5 TTF1 397 398 399 135 396 2 0 45 34 397 4
.71238898038469 1.452090637532536 4.71938766791245 1.452090637532536 4.724291041
24394 1.451489785586248 4.72908960280434 1.450901777115746 4.72899501048698 1.45
005948969679 4.72890276730759 1.449238119931734 4.72401446856727 1.4486455319857
76 4.71921579547138 1.448063808980644 4.71238898139337 1.44806130995761 4.705660
29856954 1.448058846856492 4.70076349364738 1.448645531811594 4.69591752290537 1
.449226126336472 4.6957829503162 1.450059489449846 4.69564893782889 1.4508893840
39422 4.70048767428976 1.451489876130996 4.70532858083744 1.452090637532536 4.71
238898038469 1.452090637532536 127 11 398 1 2 2 2 2 2 2 2 2 2 1 128 11 399 -.125
 0 .125 .25 .375 .5 .625 .75 .875 1 1.125 17 52 0 400 52 52 31 47 30 350 0 -15 4
00 56 0 52 346 391 14 346 52 0 ?138 37 400 25 38 +0 0 138 37 46 15 391 53 0 390
 346 0 14 138 45 0 ?128 346 401 25 143 +0 0 128 346 46 14 37 59 0 ?346 142 386 2
5 26 +0 0 346 142 46 15 386 61 0 93 37 102 15 401 49 0 387 138 366 17 387 0 401
 387 387 55 93 385 402 0 -15 366 46 0 359 138 0 133 402 146 0 387 403 358 0 +358
 .0125 .01877117848063385 .03103178464686865 .0125 .01877117848063385 .031031784
64686865 0 1 137 403 145 0 4 388 402 404 +26 405 0 ?137 358 147 0 4 402 354 406
 +143 407 0 ?141 406 402 406 406 358 134 407 0 0 0 0 0 0 +408 409 136 408 2 17 2
 11 5 TTF1 410 411 412 135 409 2 0 45 34 410 4.71238898038469 1.452090637532536
 4.71938766810404 1.452090637532536 4.72429104142466 1.451489785563966 4.7290896
0306429 1.450901777060646 4.72899501047852 1.450059489634954 4.72890273002696 1.
449237790308822 4.72401522427013 1.448645620560952 4.71921320216443 1.4480638080
0439 4.71238898240363 1.448061309957606 4.70566029891213 1.44805884688245 4.7007
634941902 1.448645531746174 4.69591752318455 1.44922612623595 4.69578295032467 1
.45005948938801 4.6956489375729 1.450889383984332 4.70048767410885 1.45148987610
868 4.70532858064722 1.452090637532536 4.71238898038469 1.452090637532536 127 11
 411 1 2 2 2 2 2 2 2 2 2 1 128 11 412 -.125 0 .125 .25 .375 .5 .625 .75 .875 1 1
.125 133 388 144 0 93 413 403 0 +403 .0125 .01877117848063385 .03103178464686865
 .0125 .01877117848063385 .03103178464686865 0 1 141 404 388 404 404 403 134 405
 0 0 0 0 0 0 +414 415 136 414 2 9 2 5 5 FFF1 416 417 418 135 415 2 0 45 18 416 2
.59757677396844 946985204864175e-29 2.59757677396844 -.571151034418546 2.5976351
89219965 -1.570797505612915 2.597693646764965 -2.57116773521104 2.59769364676496
5 -3.141592653589795 2.597693646764965 -3.712020678008375 2.5976351892128 -4.712
38792415685 2.59757677396844 -5.7120311689714 2.59757677396844 -6.28318530717958
 127 5 417 3 2 2 2 3 128 5 418 0 .25 .5 .75 1 137 413 142 0 4 152 388 419 +38 42
0 0 ?133 152 141 0 390 149 413 0 +413 .0125 .0352160129506406 -.0086695577616022
1 .0125 .0352160129506406 -.00866955776160221 0 1 141 419 152 419 419 413 134 42
0 0 0 0 0 0 0 +421 422 136 421 2 17 2 11 5 TTF1 423 424 425 135 422 2 0 45 34 42
3 4.71238898038469 -1.452090637532536 4.70538746650759 -1.452090637532536 4.7004
8767428976 -1.451489876130996 4.69568839416101 -1.450901438473162 4.695782950316
2 -1.450059489449844 4.69587519530903 -1.44923811952989 4.70076349364738 -1.4486
45531811594 4.70556216781985 -1.448063808851602 4.71238898139337 -1.448061309957
606 4.7191176647488 -1.4480588469833 4.72401446856727 -1.448645531985776 4.72886
043896527 -1.449226126647182 4.72899501048698 -1.45005948969679 4.72912907369347
 -1.450889704895208 4.72429104124394 -1.451489785586248 4.71944679070079 -1.4520
90637532536 4.71238898038469 -1.452090637532536 127 11 424 1 2 2 2 2 2 2 2 2 2 1
 128 11 425 -.125 0 .125 .25 .375 .5 .625 .75 .875 1 1.125 15 344 81 0 71 35 0 1
5 106 39 0 103 128 0 15 343 79 0 99 189 229 15 229 78 0 100 189 0 133 53 134 0 4
7 0 348 0 +348 .0125 .0352160129506406 .0086695577616022 .0125 .0352160129506406
 .0086695577616022 0 1 141 351 53 351 351 348 134 352 0 0 0 0 0 0 +426 427 136 4
26 2 9 2 5 5 FFF1 428 429 430 135 427 2 0 45 18 428 1.81217861057099 30399712288
66935e-29 1.81217861057099 -.571151035243944 1.81223702582072 -1.570797474916395
 1.81229548336752 -2.571167734381525 1.81229548336752 -3.141592653589795 1.81229
548336752 -3.712020678949265 1.812237025813555 -4.71238795485376 1.8121786105709
9 -5.71203116802809 1.81217861057099 -6.28318530717956 127 5 429 3 2 2 2 3 128 5
 430 0 .25 .5 .75 1 141 347 392 431 431 38 141 431 413 347 347 38 14 181 74 0 ?2
69 189 232 25 172 +0 0 269 189 46 17 211 0 342 211 211 58 83 209 195 0 -133 195
 196 0 211 192 328 0 +328 .0125 .0086695577616022 -.0352160129506406 .0125 .0086
695577616022 -.0352160129506406 0 1 137 328 197 0 4 195 82 432 +295 433 0 ?141 4
32 195 432 432 328 134 433 0 0 0 0 0 0 +434 435 136 434 2 17 2 11 5 TTF1 436 437
 438 135 435 2 0 45 34 436 4.71238898038469 1.452090637532536 4.7193876681043 1.
452090637532536 4.72429104142467 1.451489785563968 4.72908960306444 1.4509017770
60602 4.72899501047852 1.450059489634956 4.7289027300268 1.449237790308806 4.724
01522427013 1.448645620560954 4.71921320216476 1.448063808004432 4.7123889824036
3 1.44806130995761 4.70566029891381 1.448058846882414 4.7007634941902 1.44864553
1746174 4.69591752318468 1.44922612623577 4.69578295032467 1.45005948938801 4.69
564893757281 1.45088938398432 4.70048767410886 1.45148987610868 4.70532858064723
 1.452090637532536 4.71238898038469 1.452090637532536 127 11 437 1 2 2 2 2 2 2 2
 2 2 1 128 11 438 -.125 0 .125 .25 .375 .5 .625 .75 .875 1 1.125 15 217 70 0 97
 187 79 15 79 69 0 78 187 0 137 316 182 0 4 439 219 440 +190 441 0 ?133 439 181
 0 222 442 316 0 +316 .0125 -.0352160129506406 .00866955776160221 .0125 -.035216
0129506406 .00866955776160221 0 1 141 440 439 440 440 316 134 441 0 0 0 0 0 0 +4
43 444 136 443 2 17 2 11 5 TTF1 445 446 447 135 444 2 0 45 34 445 4.712388980384
69 -1.452090637532536 4.70538746669929 -1.452090637532536 4.70048767447038 -1.45
1489876153278 4.69568839442048 -1.450901438528266 4.69578295030775 -1.4500594895
1158 4.69587519503565 -1.449238119629726 4.70076349310541 -1.448645531876912 4.7
05562166743 -1.44806380891591 4.71238898038469 -1.44806130995761 4.7191176632892
3 -1.44805884692011 4.72401446766398 -1.448645531876912 4.72886043814281 -1.4492
2612643685 4.72899501046163 -1.45005948951158 4.72912902268481 -1.45088938409421
 4.724290286299 -1.451489876153276 4.71944937974392 -1.452090637532536 4.7123889
8038469 -1.452090637532536 127 11 446 1 2 2 2 2 2 2 2 2 2 1 128 11 447 -.125 0 .
125 .25 .375 .5 .625 .75 .875 1 1.125 17 222 0 448 222 222 73 75 216 439 0 -137
 442 180 0 4 223 439 449 +172 450 0 ?133 223 179 0 75 268 442 0 +442 .0125 -.035
2160129506406 .00866955776160221 .0125 -.0352160129506406 .00866955776160221 0 1
 141 449 223 449 449 442 134 450 0 0 0 0 0 0 +451 452 136 451 2 9 2 5 5 FFF1 453
 454 455 135 452 2 0 45 18 453 4.471006696608595 303997122886573e-28 4.471006696
608595 .571151032637484 4.47094828136066 1.57079744426915 4.470889823812065 2.57
1167737016515 4.470889823812065 3.141592653589795 4.470889823812065 3.7120206804
6439 4.47094828136066 4.71238786291044 4.471006696608595 5.71203116649144 4.4710
06696608595 6.28318530717962 127 5 454 3 2 2 2 3 128 5 455 0 .25 .5 .75 1 137 26
8 177 0 4 265 223 456 +190 457 0 ?141 456 265 456 456 268 134 457 0 0 0 0 0 0 +4
58 459 136 458 2 17 2 11 5 TTF1 460 461 462 135 459 2 0 45 34 460 4.712388980384
69 1.452090637532536 4.71939049406994 1.452090637532536 4.724290286299 1.4514898
76153278 4.72908956634905 1.450901438528266 4.72899501046163 1.45005948951158 4.
72890276573357 1.449238119629736 4.72401446766398 1.448645531876912 4.7192157940
266 1.44806380891591 4.71238898038469 1.44806130995761 4.70566029747799 1.448058
846920108 4.7007634931054 1.448645531876914 4.69591752262654 1.44922612643711 4.
69578295030775 1.45005948951158 4.69564893808454 1.45088938409433 4.700487674470
38 1.451489876153276 4.70532858102648 1.452090637532536 4.71238898038469 1.45209
0637532536 127 11 461 1 2 2 2 2 2 2 2 2 2 1 128 11 462 -.125 0 .125 .25 .375 .5
 .625 .75 .875 1 1.125 15 448 25 0 222 276 0 14 276 24 0 ?294 137 463 25 190 +0
 0 294 137 46 14 137 31 0 ?276 128 234 25 129 +0 0 276 128 46 15 463 28 0 227 27
6 448 17 227 0 463 227 227 44 224 220 265 0 -18 44 30 0 224 68 73 28 5e-7 4 15 3
02 21 0 218 294 290 15 290 18 0 214 294 0 141 303 328 464 464 295 141 464 159 30
3 303 295 141 277 268 465 465 190 141 465 316 277 277 190 15 226 73 0 224 269 21
3 15 213 72 0 95 269 0 15 236 32 0 230 137 0 141 238 124 238 238 127 134 239 0 0
 0 0 0 0 +466 467 136 466 2 9 2 5 5 FFF1 468 469 470 135 467 2 0 45 18 468 4.168
373100763335 -335218333622174e-28 4.168373100763335 -.571151035808163 4.16843151
6011275 -1.57079744427034 4.168489973559865 -2.57116773378511 4.168489973559865
 -3.141592653589795 4.168489973559865 -3.7120206774592 4.168431516011275 -4.7123
8786290964 4.168373100763335 -5.71203116955364 4.168373100763335 -6.283185307179
62 127 5 469 3 2 2 2 3 128 5 470 0 .25 .5 .75 1 15 221 75 0 75 181 0 15 188 67 0
 83 146 208 15 208 66 0 62 146 0 141 196 194 196 196 192 134 197 0 0 0 0 0 0 +47
1 472 136 471 2 9 2 5 5 FFF1 473 474 475 135 472 2 0 45 18 473 .2413822837760935
 -2414180419226925e-29 .2413822837760935 -.571151035014781 .241440699027617 -1.5
70797505612915 .241499156572622 -2.57116773461057 .241499156572622 -3.1415926535
89795 .241499156572622 -3.712020678622605 .2414406990204535 -4.71238792415804 .2
413822837760935 -5.7120311683562 .2413822837760935 -6.28318530717961 127 5 474 3
 2 2 2 3 128 5 475 0 .25 .5 .75 1 141 191 371 476 476 184 141 476 242 191 191 18
4 141 183 127 477 477 172 141 477 442 183 183 172 15 166 7 0 88 171 206 141 153
 151 153 153 149 134 154 0 0 0 0 0 0 +478 479 136 478 2 9 2 5 5 FFF1 480 481 482
 135 479 2 0 45 18 480 1.329414043018802 -3039971228866935e-29 1.329414043018802
 .571151033656112 1.329355627776236 1.570797352325825 1.329297170222274 2.571167
73597888 1.329297170222274 3.141592653589795 1.329297170222274 3.71202067899 1.3
29355627769072 4.712387832262 1.329414043018802 5.71203116798501 1.3294140430188
02 6.28318530717956 127 5 481 3 2 2 2 3 128 5 482 0 .25 .5 .75 1 141 148 358 483
 483 143 141 483 360 148 148 143 15 87 64 0 85 142 389 141 141 237 484 484 129 1
41 484 251 141 141 129 141 113 112 113 113 110 134 115 0 0 0 0 0 0 +485 486 136
 485 2 17 2 11 5 TTF1 487 488 489 135 486 2 0 45 34 487 4.71238898038469 1.45209
0637532536 4.71939049406993 1.452090637532536 4.724290286299 1.451489876153278 4
.7290895663489 1.450901438528284 4.72899501046163 1.45005948951158 4.72890276573
373 1.449238119629746 4.72401446766397 1.448645531876912 4.71921579402653 1.4480
6380891591 4.71238898038469 1.44806130995761 4.70566029748071 1.44805884692011 4
.7007634931054 1.448645531876912 4.69591752262629 1.449226126436814 4.6957829503
0775 1.45005948951158 4.69564893808484 1.45088938409432 4.70048767447038 1.45148
9876153278 4.70532858102607 1.452090637532536 4.71238898038469 1.452090637532536
 127 11 488 1 2 2 2 2 2 2 2 2 2 1 128 11 489 -.125 0 .125 .25 .375 .5 .625 .75 .
875 1 1.125 19 36 83 0 4 0 29 25 S141 41 40 41 41 27 134 43 0 0 0 0 0 0 +490 491
 136 490 2 17 2 11 5 TTF1 492 493 494 135 491 2 0 45 34 492 4.71238898038469 -1.
452090637532536 4.70538746669897 -1.452090637532536 4.70048767447038 -1.45148987
6153276 4.69568839442034 -1.45090143852821 4.69578295030775 -1.45005948951158 4.
69587519503582 -1.44923811962961 4.70076349310541 -1.448645531876912 4.705562166
74348 -1.44806380891595 4.71238898038469 -1.448061309957608 4.71911766328883 -1.
44805884692007 4.72401446766398 -1.448645531876912 4.72886043814304 -1.449226126
436864 4.72899501046163 -1.45005948951158 4.72912902268458 -1.45088938409421 4.7
24290286299 -1.451489876153278 4.71944937974417 -1.452090637532536 4.71238898038
469 -1.452090637532536 127 11 493 1 2 2 2 2 2 2 2 2 2 1 128 11 494 -.125 0 .125
 .25 .375 .5 .625 .75 .875 1 1.125 141 39 403 495 495 26 141 495 111 39 39 26 74
 20 34 1 0 23 0 0 0 0 0 0 0 0 0 0 0 0 0 0 0 0 0 0 0 80 1 32 496 497 8017 0 0 0 0
 0 0 0 0 0 TTTTTTTTTTTTTF3 84 20 33 skf_bearing_6309_2_379 13 497 SDL/TYSA_NAME8
1 1 14 69 32 3 0 0 0 0 498 70 15 0 3 0 0 4 1 20 4 499 499 1 T13 16 44 0 3 0 500
 0 0 501 0 50 17 52 0 502 503 0 0 +2170614762150165e-34 .027545 0 -1 61230317691
1189e-31 0 -612303176911189e-31 -1 0 31 18 68 0 504 505 0 0 +.0015 0 0 1 0 0 0 1
 0 .0225 29 19 60 0 22 506 0 .0195430647448394 .03109 0 19 20 1 0 3 501 0 507 V1
6 21 37 0 ?508 0 509 510 0 0 3 18 22 38 0 508 0 511 19 ?3 17 508 0 512 508 508 2
2 513 21 0 513 +18 511 33 0 514 22 515 516 ?3 17 514 0 517 514 514 511 518 509 0
 518 +18 515 28 0 519 511 520 521 ?3 29 516 55 0 511 522 523 .00545693525516059
 .03109 0 29 522 54 0 524 521 516 .025 .024 0 29 523 56 0 525 516 526 .0235 .022
5 0 18 525 13 0 527 528 529 523 ?3 29 526 57 0 529 523 530 .025 .03109 0 18 529
 9 0 531 525 524 526 ?3 29 530 58 0 528 526 506 .0015 .0225 0 18 528 18 0 532 52
0 525 530 ?3 29 506 59 0 520 530 19 0 .024 0 18 520 23 0 533 515 528 506 ?3 17 5
33 0 534 533 533 520 535 536 0 535 +15 534 29 0 533 502 537 17 535 0 538 535 535
 520 533 536 0 0 -16 536 22 0 ?533 539 504 505 0 0 3 16 539 27 0 ?519 509 536 54
0 0 0 3 16 504 17 0 ?532 536 541 18 0 0 3 31 505 67 0 536 542 18 0 +0 0 0 1 0 0
 0 1 0 .024 31 542 66 0 543 510 505 0 +.025 0 0 1 0 0 0 1 0 .024 16 543 5 0 ?544
 545 0 542 0 0 3 31 510 65 0 21 546 542 0 +.0195430647448394 0 0 1 0 0 0 1 0 .03
109 31 546 64 0 509 540 510 0 +.00545693525516058 0 0 1 0 0 0 1 0 .03109 16 509
 32 0 ?514 21 539 546 0 0 3 31 540 63 0 539 547 546 0 +0 0 0 1 0 0 0 1 0 .03109
 31 547 62 0 545 548 540 0 +.025 0 0 1 0 0 0 1 0 .03109 16 545 8 0 ?531 541 543
 547 0 0 3 31 548 61 0 541 0 547 0 +.0235 0 0 1 0 0 0 1 0 .0225 16 541 12 0 ?527
 504 545 548 0 0 3 17 527 0 549 527 527 525 550 541 0 550 +15 549 19 0 527 551 5
52 17 550 0 553 550 550 525 527 541 0 0 -15 553 11 0 550 554 0 14 554 10 0 ?555
 551 556 16 557 +0 0 555 551 507 14 555 3 0 ?0 554 558 16 559 +0 0 0 554 507 14
 551 15 0 ?554 560 549 16 561 -0 0 554 560 507 15 556 14 0 544 554 553 54 557 47
 0 554 561 559 0 +.0235 0 0 1 0 0 .024 .0015 0 0 -1 13 507 2 0 0 0 0 0 0 20 500
 14 500 40 0 ?562 0 512 16 563 +0 0 562 0 507 14 562 35 0 ?564 500 517 16 565 -0
 0 564 500 507 15 512 42 0 508 500 566 51 563 50 0 500 567 503 0 +.0222715323724
197 0 0 -1 0 0 .03109 0 1 0 51 567 49 0 564 559 563 0 +.002728467627580295 0 0 -
1 0 0 .03109 0 1 0 54 503 51 0 560 563 17 0 +.0015 0 0 1 0 0 .024 .0015 0 0 -1 1
4 560 20 0 ?551 502 568 16 503 +0 0 551 502 507 14 502 25 0 ?560 564 534 16 17 +
0 0 560 564 507 15 568 24 0 532 560 538 17 532 0 568 532 532 528 569 504 0 569 +
15 538 21 0 535 560 0 17 569 0 552 569 569 528 532 504 0 0 -15 552 16 0 569 551
 0 14 564 30 0 ?502 562 570 16 567 +0 0 502 562 507 15 570 34 0 519 564 571 17 5
19 0 570 519 519 515 572 539 0 572 +15 571 31 0 518 564 0 17 518 0 571 518 518 5
11 514 509 0 0 -17 572 0 537 572 572 515 519 539 0 0 -15 537 26 0 572 502 0 50 5
59 48 0 555 557 567 0 +.025 .027545 0 1 0 0 0 1 0 15 566 41 0 573 500 0 17 573 0
 566 573 573 529 531 545 0 0 -17 531 0 558 531 531 529 573 545 0 573 +15 558 7 0
 531 555 574 15 574 4 0 575 555 0 17 575 0 574 575 575 524 544 543 0 0 -18 524 6
 0 544 529 0 522 ?3 17 544 0 556 544 544 524 575 543 0 575 +15 517 39 0 514 562
 576 54 565 45 0 562 0 561 0 +.0125 0 0 1 0 0 .03625 .008731 0 0 -1 51 561 46 0
 551 565 557 0 +.0125 0 0 -1 0 0 .0225 0 1 0 15 576 36 0 513 562 0 17 513 0 576
 513 513 22 508 21 0 0 -29 521 53 0 515 0 522 434122952430033e-33 .03109 0 19 50
1 43 0 3 0 20 16 S74 20 499 1 0 14 0 0 0 0 0 0 0 0 0 0 0 0 0 0 0 0 0 0 0 84 20 4
98 skf_bearing_6309_2_281 1 5 117 32 2 0 0 0 0 577 70 6 0 2 0 0 4 1 20 4 578 578
 1 T13 7 74 0 2 0 579 0 0 580 0 52 8 88 0 581 582 0 0 +.022796374014249 0 0 1 0
 0 .0424078275119551 .984807753012207 .173648177666938 0 1 0 31 9 116 0 583 584
 0 0 +.0226054423084379 0 0 1 0 0 0 1 0 .041325 29 10 102 0 585 586 0 .005395442
589436 .041325 0 19 11 1 0 2 580 0 587 V16 12 67 0 ?588 0 589 590 0 0 2 18 13 68
 0 588 0 591 592 ?2 17 588 0 593 588 588 13 594 12 0 594 +18 591 63 0 595 13 596
 597 ?2 29 592 93 0 13 598 599 .024595 .04335 0 29 598 92 0 600 601 592 .0226054
423084379 .041325 0 29 599 94 0 602 592 603 .002394557691562095 .041325 0 18 602
 23 0 604 605 585 599 ?2 29 603 95 0 606 599 607 -315336136109262e-33 .04335 0 1
8 606 38 0 608 609 610 603 ?2 29 607 96 0 611 603 597 .0015 .05 0 18 611 48 0 61
2 613 609 607 ?2 29 597 97 0 591 607 614 .025 .04335 0 29 614 98 0 615 597 616 .
019604557410564 .041325 0 18 615 13 0 617 585 618 614 ?2 29 616 99 0 605 614 619
 .002012694279939885 .0434906550239102 0 18 605 28 0 620 610 602 616 ?2 29 619 1
00 0 609 616 586 0 .0485 0 18 609 43 0 621 611 606 619 ?2 29 586 101 0 596 619 1
0 .025 .0485 0 18 596 58 0 622 591 613 586 ?2 17 622 0 623 622 622 596 624 625 0
 624 +18 613 53 0 626 596 611 627 ?2 17 626 0 628 626 626 613 629 630 0 629 +29
 627 89 0 613 0 631 .0235 .05 0 29 631 90 0 618 627 601 .0229873057200601 .04349
06550239102 0 18 618 9 0 632 615 600 631 ?2 29 601 91 0 610 631 598 405e-6 .0433
5 0 18 610 33 0 633 606 605 601 ?2 17 633 0 634 633 633 610 635 636 0 635 +15 63
4 39 0 633 637 638 17 635 0 639 635 635 610 633 636 0 0 -16 636 32 0 ?633 640 64
1 642 0 0 2 16 640 37 0 ?608 643 636 644 0 0 2 16 641 27 0 ?620 636 645 646 0 0
 2 31 642 107 0 636 647 648 0 +405e-6 0 0 1 0 0 0 1 0 .04335 31 647 106 0 589 59
0 642 0 +.025 0 0 1 0 0 0 1 0 .04335 31 648 108 0 649 642 650 0 +.02298730572006
01 0 0 1 0 0 0 1 0 .0434906550239102 16 649 8 0 ?632 651 583 648 0 0 2 31 650 10
9 0 651 648 652 0 +.019604557410564 0 0 1 0 0 0 1 0 .041325 16 651 12 0 ?617 653
 649 650 0 0 2 31 652 110 0 645 650 654 0 +.002394557691562095 0 0 1 0 0 0 1 0 .
041325 16 645 22 0 ?604 641 653 652 0 0 2 31 654 111 0 643 652 655 0 +0 0 0 1 0
 0 0 1 0 .0485 16 643 42 0 ?621 656 640 654 0 0 2 31 655 112 0 630 654 646 0 +.0
235 0 0 1 0 0 0 1 0 .05 16 630 52 0 ?626 625 656 655 0 0 2 31 646 113 0 641 655
 657 0 +.002012694279939885 0 0 1 0 0 0 1 0 .0434906550239102 31 657 114 0 653 6
46 584 0 +.00539544258943599 0 0 1 0 0 0 1 0 .041325 16 653 17 0 ?658 645 651 65
7 0 0 2 31 584 115 0 656 657 9 0 +.0015 0 0 1 0 0 0 1 0 .05 16 656 47 0 ?612 630
 643 584 0 0 2 17 612 0 659 612 612 611 660 656 0 660 +15 659 54 0 612 661 662 1
7 660 0 663 660 660 611 612 656 0 0 -15 663 46 0 660 664 0 14 664 45 0 ?665 661
 666 7 667 +0 0 665 661 587 14 665 40 0 ?637 664 668 7 669 +0 0 637 664 587 14 6
61 50 0 ?664 670 659 7 671 +0 0 664 670 587 15 666 49 0 621 664 663 54 667 84 0
 664 672 673 0 +.0015 0 0 1 0 0 .0485 .0015 0 0 -1 13 587 2 0 0 0 0 0 0 11 579 1
4 579 70 0 ?674 0 593 7 675 -0 0 674 0 587 14 674 65 0 ?676 579 677 7 678 -0 0 6
76 579 587 15 593 72 0 588 579 679 54 675 80 0 579 678 680 0 +.023785 0 0 1 0 0
 .04335 81e-5 0 0 -1 51 678 79 0 674 671 675 0 +.0247975 0 0 -1 0 0 .04335 0 1 0
 51 680 81 0 681 675 682 0 +.003895000140499045 0 0 -1 0 0 .041325 0 1 0 14 681
 20 0 ?683 684 685 7 680 -0 0 683 684 587 54 682 82 0 686 680 672 0 +.001215 0 0
 1 0 0 .04335 81e-5 0 0 -1 14 686 30 0 ?684 637 687 7 682 -0 0 684 637 587 51 67
2 83 0 688 682 667 0 +.02110499985950095 0 0 -1 0 0 .041325 0 1 0 14 688 10 0 ?5
81 683 689 7 672 -0 0 581 683 587 14 581 3 0 ?0 688 690 7 8 -0 0 0 688 587 14 68
3 15 0 ?688 681 691 7 673 -0 0 688 681 587 15 689 14 0 692 688 693 17 692 0 689
 692 692 600 694 583 0 694 +15 693 11 0 695 688 0 17 695 0 693 695 695 615 617 6
51 0 0 -17 617 0 691 617 617 615 695 651 0 695 +15 691 19 0 617 683 696 15 696 1
6 0 697 683 0 17 697 0 696 697 697 585 658 653 0 0 -18 585 18 0 658 602 615 10 ?
2 17 658 0 685 658 658 585 697 653 0 697 +15 685 24 0 658 681 698 15 698 21 0 69
9 681 0 17 699 0 698 699 699 602 604 645 0 0 -17 604 0 700 604 604 602 699 645 0
 699 +15 700 29 0 604 684 701 14 684 25 0 ?681 686 700 7 702 -0 0 681 686 587 15
 701 26 0 703 684 0 17 703 0 701 703 703 605 620 641 0 0 -17 620 0 687 620 620 6
05 703 641 0 703 +15 687 34 0 620 686 639 15 639 31 0 635 686 0 52 702 75 0 684
 0 704 0 +.002203625985750995 0 0 -1 0 0 .0424078275119551 .984807753012208 .173
648177666932 0 1 0 54 704 76 0 670 702 669 0 +.0235 0 0 1 0 0 .0485 .0015 0 0 -1
 14 670 55 0 ?661 676 628 7 704 +0 0 661 676 587 50 669 77 0 665 704 671 0 +-157
668068054631e-33 .045925 0 -1 612303176911189e-31 0 -612303176911189e-31 -1 0 51
 671 78 0 661 669 678 0 +.0125 0 0 -1 0 0 .05 0 1 0 14 676 60 0 ?670 674 623 7 5
82 +0 0 670 674 587 15 628 59 0 626 670 705 15 705 56 0 624 670 0 17 624 0 705 6
24 624 596 622 625 0 0 -16 625 57 0 ?622 589 630 706 0 0 2 16 589 62 0 ?595 12 6
25 647 0 0 2 31 706 104 0 625 644 590 0 +.025 0 0 1 0 0 0 1 0 .0485 31 644 103 0
 640 0 706 0 +0 0 0 1 0 0 0 1 0 .04335 31 590 105 0 12 706 647 0 +.024595 0 0 1
 0 0 0 1 0 .04335 17 595 0 677 595 595 591 707 589 0 707 +15 677 69 0 595 674 70
8 17 707 0 709 707 707 591 595 589 0 0 -15 709 61 0 707 676 0 15 708 66 0 594 67
4 0 17 594 0 708 594 594 13 588 12 0 0 -15 623 64 0 622 676 709 50 582 87 0 676
 710 8 0 +.025 .045925 0 1 0 0 0 1 0 51 710 86 0 637 673 582 0 +2025e-7 0 0 -1 0
 0 .04335 0 1 0 14 637 35 0 ?686 665 634 7 710 -0 0 686 665 587 54 673 85 0 683
 667 710 0 +.0125 0 0 1 0 0 .03625 .008731 0 0 -1 18 600 6 0 692 618 0 598 ?2 17
 694 0 711 694 694 600 692 583 0 0 -16 583 5 0 ?692 649 0 9 0 0 2 15 711 4 0 694
 581 0 15 690 7 0 632 581 711 17 632 0 690 632 632 618 712 649 0 712 +17 712 0 6
79 712 712 618 632 649 0 0 -15 679 71 0 712 579 0 17 621 0 666 621 621 609 713 6
43 0 713 +17 713 0 714 713 713 609 621 643 0 0 -15 714 41 0 713 665 0 15 668 44
 0 608 665 714 17 608 0 668 608 608 606 715 640 0 715 +17 715 0 638 715 715 606
 608 640 0 0 -15 638 36 0 715 637 0 15 662 51 0 629 661 0 17 629 0 662 629 629 6
13 626 630 0 0 -19 580 73 0 2 0 11 7 S74 20 578 1 0 5 0 0 0 0 0 0 0 0 0 0 0 0 0
 0 0 0 0 0 0 84 20 577 skf_bearing_6309_2_11 0 
